<svg width="14" height="14" viewBox="0 0 14 14" fill="none" xmlns="http://www.w3.org/2000/svg">
<path d="M1.68004 4.15333C1.61214 4.22107 1.55826 4.30153 1.5215 4.39012C1.48474 4.4787 1.46582 4.57367 1.46582 4.66958C1.46582 4.76549 1.48474 4.86046 1.5215 4.94905C1.55826 5.03763 1.61214 5.1181 1.68004 5.18583L6.58588 10.0917C6.63984 10.1457 6.70394 10.1886 6.77451 10.2179C6.84508 10.2472 6.92073 10.2623 6.99713 10.2623C7.07352 10.2623 7.14917 10.2472 7.21974 10.2179C7.29031 10.1886 7.35441 10.1457 7.40838 10.0917L12.3142 5.18583C12.6 4.9 12.6 4.43916 12.3142 4.15333C12.0284 3.8675 11.5675 3.8675 11.2817 4.15333L7.00004 8.435L2.71254 4.1475C2.42671 3.8675 1.96587 3.8675 1.68004 4.15333Z" fill="#B3B3B3"/>
</svg>
