<svg width="32" height="32" viewBox="0 0 32 32" fill="none" xmlns="http://www.w3.org/2000/svg">
<path d="M10.6665 8.00065V13.3327H14.6665V8.00065H17.3332V13.3327H21.3332V8.00065H23.9998V13.3327L25.3332 13.334C26.3535 13.3339 27.3352 13.7238 28.0775 14.4237C28.8198 15.1236 29.2666 16.0808 29.3265 17.0993L29.3332 17.334V18.6673C29.3332 20.0193 28.8305 21.254 28.0012 22.194L27.9998 28.0007C27.9998 28.3543 27.8594 28.6934 27.6093 28.9435C27.3593 29.1935 27.0201 29.334 26.6665 29.334H5.33317C4.97955 29.334 4.64041 29.1935 4.39036 28.9435C4.14031 28.6934 3.99984 28.3543 3.99984 28.0007V22.1873C3.28339 21.371 2.83149 20.3566 2.70384 19.278L2.6745 18.9407L2.6665 18.6673V17.334C2.66645 16.3137 3.05627 15.332 3.75622 14.5896C4.45616 13.8473 5.41331 13.4005 6.43184 13.3407L6.6665 13.334L7.99984 13.3327V8.00065H10.6665ZM12.0025 22.1887L11.9305 22.2727C11.0565 23.2269 9.86495 23.8302 8.5785 23.97L8.27184 23.994L7.99984 24.0007C7.53984 24.0007 7.09317 23.942 6.6665 23.8327V26.6673H25.3332V23.8327C24.4603 24.057 23.5449 24.057 22.6721 23.8325C21.7993 23.608 20.9974 23.1663 20.3412 22.5487L20.1412 22.3487L19.9998 22.1926L19.8572 22.35C18.9926 23.2577 17.8352 23.831 16.5892 23.9687L16.2665 23.9953L15.9998 24.0007C14.6045 24.0027 13.2645 23.4546 12.2705 22.4753L12.0705 22.266L12.0025 22.1887ZM25.3332 16.0007H6.6665C6.33993 16.0007 6.02472 16.1206 5.78067 16.3376C5.53663 16.5546 5.38071 16.8537 5.3425 17.178L5.33317 17.334V18.6287L5.33717 18.8247C5.3773 19.5036 5.67532 20.1415 6.17028 20.608C6.66524 21.0744 7.31972 21.3342 7.99984 21.334C8.63844 21.3351 9.25622 21.1069 9.74075 20.6909C10.2253 20.2749 10.5443 19.6987 10.6398 19.0673L10.6598 18.8633L10.6665 18.6287C10.7145 16.9647 13.1025 16.9047 13.3185 18.45L13.3318 18.6287L13.3372 18.8247C13.3745 19.5019 13.6684 20.1395 14.1593 20.6077C14.6501 21.0758 15.3008 21.3393 15.9791 21.3446C16.6574 21.3499 17.3121 21.0965 17.8102 20.636C18.3082 20.1755 18.612 19.5426 18.6598 18.866L18.6758 18.49C18.8412 16.9487 21.1585 16.9487 21.3238 18.49L21.3398 18.866C21.3875 19.5389 21.6885 20.1688 22.1821 20.6286C22.6757 21.0885 23.3252 21.3442 23.9998 21.3442C24.6745 21.3442 25.324 21.0885 25.8176 20.6286C26.3112 20.1688 26.6122 19.5389 26.6598 18.866L26.6665 18.6673V17.334C26.6665 17.0074 26.5466 16.6922 26.3295 16.4482C26.1125 16.2041 25.8135 16.0482 25.4892 16.01L25.3332 16.0007ZM9.33317 1.33398C11.0932 2.49532 11.5505 4.11798 11.2652 5.18465C11.128 5.69705 10.7928 6.13396 10.3335 6.39926C9.87415 6.66456 9.32824 6.73652 8.81584 6.59932C8.30344 6.46211 7.86653 6.12698 7.60123 5.66764C7.33593 5.2083 7.26397 4.66238 7.40117 4.14998C7.79984 2.66998 9.33317 3.33398 9.33317 1.33398ZM15.9998 1.33398C17.7598 2.49532 18.2172 4.11798 17.9318 5.18465C17.7946 5.69705 17.4595 6.13396 17.0002 6.39926C16.5408 6.66456 15.9949 6.73652 15.4825 6.59932C14.9701 6.46211 14.5332 6.12698 14.2679 5.66764C14.0026 5.2083 13.9306 4.66238 14.0678 4.14998C14.4665 2.66998 15.9998 3.33398 15.9998 1.33398ZM22.6665 1.33398C24.4265 2.49532 24.8838 4.11798 24.5985 5.18465C24.4613 5.69705 24.1262 6.13396 23.6668 6.39926C23.2075 6.66456 22.6616 6.73652 22.1492 6.59932C21.6368 6.46211 21.1999 6.12698 20.9346 5.66764C20.6693 5.2083 20.5973 4.66238 20.7345 4.14998C21.1332 2.66998 22.6665 3.33398 22.6665 1.33398Z" fill="#2170AC"/>
</svg>
