<svg width="16" height="16" viewBox="0 0 16 16" fill="none" xmlns="http://www.w3.org/2000/svg">
<path d="M7.99967 14.6663C4.31767 14.6663 1.33301 11.6817 1.33301 7.99967C1.33301 4.31767 4.31767 1.33301 7.99967 1.33301C11.6817 1.33301 14.6663 4.31767 14.6663 7.99967C14.6663 11.6817 11.6817 14.6663 7.99967 14.6663ZM7.99967 13.333C9.41416 13.333 10.7707 12.7711 11.7709 11.7709C12.7711 10.7707 13.333 9.41416 13.333 7.99967C13.333 6.58519 12.7711 5.22863 11.7709 4.22844C10.7707 3.22824 9.41416 2.66634 7.99967 2.66634C6.58519 2.66634 5.22863 3.22824 4.22844 4.22844C3.22824 5.22863 2.66634 6.58519 2.66634 7.99967C2.66634 9.41416 3.22824 10.7707 4.22844 11.7709C5.22863 12.7711 6.58519 13.333 7.99967 13.333ZM7.99967 7.05701L9.41342 5.64276C9.67386 5.38223 10.0962 5.38219 10.3567 5.64267C10.6172 5.90316 10.6171 6.32549 10.3566 6.58592L8.94234 7.99967L10.3566 9.41342C10.6171 9.67386 10.6172 10.0962 10.3567 10.3567C10.0962 10.6172 9.67386 10.6171 9.41342 10.3566L7.99967 8.94234L6.58593 10.3566C6.32549 10.6171 5.90316 10.6172 5.64267 10.3567C5.38219 10.0962 5.38223 9.67386 5.64276 9.41342L7.05701 7.99967L5.64276 6.58593C5.38223 6.32549 5.38219 5.90316 5.64267 5.64267C5.90316 5.38219 6.32549 5.38223 6.58592 5.64276L7.99967 7.05701Z" fill="#FF5658"/>
</svg>
