<svg width="40" height="40" viewBox="0 0 40 40" fill="none" xmlns="http://www.w3.org/2000/svg">
<path d="M20 37.9167C10.1166 37.9167 2.08331 29.8834 2.08331 20C2.08331 10.1167 10.1166 2.08337 20 2.08337C29.8833 2.08337 37.9166 10.1167 37.9166 20C37.9166 29.8834 29.8833 37.9167 20 37.9167ZM20 4.58337C11.5 4.58337 4.58331 11.5 4.58331 20C4.58331 28.5 11.5 35.4167 20 35.4167C28.5 35.4167 35.4166 28.5 35.4166 20C35.4166 11.5 28.5 4.58337 20 4.58337Z" fill="#EEF6FC"/>
<path d="M15.2823 25.9669C14.9656 25.9669 14.649 25.8502 14.399 25.6002C13.9157 25.1169 13.9157 24.3169 14.399 23.8335L23.8324 14.4002C24.3157 13.9169 25.1157 13.9169 25.599 14.4002C26.0824 14.8836 26.0824 15.6836 25.599 16.1669L16.1656 25.6002C15.9323 25.8502 15.599 25.9669 15.2823 25.9669Z" fill="#EEF6FC"/>
<path d="M24.7157 25.9669C24.399 25.9669 24.0824 25.8502 23.8324 25.6002L14.399 16.1669C13.9157 15.6836 13.9157 14.8836 14.399 14.4002C14.8823 13.9169 15.6823 13.9169 16.1656 14.4002L25.599 23.8335C26.0824 24.3169 26.0824 25.1169 25.599 25.6002C25.349 25.8502 25.0324 25.9669 24.7157 25.9669Z" fill="#EEF6FC"/>
</svg>
