<svg width="40" height="40" viewBox="0 0 40 40" fill="none" xmlns="http://www.w3.org/2000/svg">
<path d="M20.0002 37.9166C10.1168 37.9166 2.0835 29.8833 2.0835 19.9999C2.0835 10.1166 10.1168 2.08325 20.0002 2.08325C29.8835 2.08325 37.9168 10.1166 37.9168 19.9999C37.9168 29.8833 29.8835 37.9166 20.0002 37.9166ZM20.0002 4.58325C11.5002 4.58325 4.5835 11.4999 4.5835 19.9999C4.5835 28.4999 11.5002 35.4166 20.0002 35.4166C28.5002 35.4166 35.4168 28.4999 35.4168 19.9999C35.4168 11.4999 28.5002 4.58325 20.0002 4.58325Z" fill="#0D2D44"/>
<path d="M15.2824 25.9667C14.9658 25.9667 14.6491 25.8501 14.3991 25.6001C13.9158 25.1167 13.9158 24.3167 14.3991 23.8334L23.8325 14.4001C24.3158 13.9168 25.1158 13.9168 25.5992 14.4001C26.0825 14.8834 26.0825 15.6834 25.5992 16.1668L16.1658 25.6001C15.9324 25.8501 15.5991 25.9667 15.2824 25.9667Z" fill="#0D2D44"/>
<path d="M24.7158 25.9667C24.3992 25.9667 24.0825 25.8501 23.8325 25.6001L14.3991 16.1668C13.9158 15.6834 13.9158 14.8834 14.3991 14.4001C14.8824 13.9168 15.6824 13.9168 16.1658 14.4001L25.5992 23.8334C26.0825 24.3167 26.0825 25.1167 25.5992 25.6001C25.3492 25.8501 25.0325 25.9667 24.7158 25.9667Z" fill="#0D2D44"/>
</svg>
