<svg width="48" height="48" viewBox="0 0 48 48" fill="none" xmlns="http://www.w3.org/2000/svg">
<path fill-rule="evenodd" clip-rule="evenodd" d="M24 45.1708C37.2548 45.1708 48 35.059 48 22.5854C48 10.1118 37.2548 0 24 0C10.7452 0 0 10.1118 0 22.5854C0 28.7919 2.6603 34.4138 6.96638 38.4961C7.84516 39.3292 8.4082 40.4602 8.4082 41.6711V43.9951C8.4082 46.9325 11.4686 48.868 14.1226 47.6091L18.819 45.3812C19.5496 45.0346 20.3671 44.9267 21.1709 45.0155C22.0987 45.1181 23.0428 45.1708 24 45.1708Z" fill="#BF023A"/>
<path d="M32.4641 18.5127C33.1786 17.7982 33.1786 16.6398 32.4641 15.9253L32.0747 15.5359C31.3602 14.8214 30.2018 14.8214 29.4873 15.5359L24 21.0232L18.5127 15.5359C17.7982 14.8214 16.6398 14.8214 15.9253 15.5359L15.5359 15.9253C14.8214 16.6398 14.8214 17.7982 15.5359 18.5127L21.0232 24L15.5359 29.4873C14.8214 30.2018 14.8214 31.3602 15.5359 32.0747L15.9253 32.4641C16.6398 33.1786 17.7982 33.1786 18.5127 32.4641L24 26.9768L29.4873 32.4641C30.2018 33.1786 31.3602 33.1786 32.0747 32.4641L32.4641 32.0747C33.1786 31.3602 33.1786 30.2018 32.4641 29.4873L26.9768 24L32.4641 18.5127Z" fill="white"/>
</svg>
