<svg width="48" height="48" viewBox="0 0 48 48" fill="none" xmlns="http://www.w3.org/2000/svg">
<path fill-rule="evenodd" clip-rule="evenodd" d="M24 45.1708C37.2548 45.1708 48 35.059 48 22.5854C48 10.1118 37.2548 0 24 0C10.7452 0 0 10.1118 0 22.5854C0 28.7919 2.6603 34.4138 6.96638 38.4961C7.84516 39.3292 8.4082 40.4602 8.4082 41.6711V43.9951C8.4082 46.9325 11.4686 48.868 14.1226 47.6091L18.819 45.3812C19.5496 45.0346 20.3671 44.9267 21.1709 45.0155C22.0987 45.1181 23.0428 45.1708 24 45.1708Z" fill="#174E78"/>
<path fill-rule="evenodd" clip-rule="evenodd" d="M26.5 22.25C26.5 21.0074 25.4926 20 24.25 20C23.0074 20 22 21.0074 22 22.25L22 31.75C22 32.9926 23.0074 34 24.25 34C25.4926 34 26.5 32.9926 26.5 31.75V22.25ZM24.25 14C23.0074 14 22 15.0074 22 16.25C22 17.4926 23.0074 18.5 24.25 18.5C25.4926 18.5 26.5 17.4926 26.5 16.25C26.5 15.0074 25.4926 14 24.25 14Z" fill="white"/>
</svg>
