<svg width="22" height="20" viewBox="0 0 22 20" fill="none" xmlns="http://www.w3.org/2000/svg">
<path fill-rule="evenodd" clip-rule="evenodd" d="M11.7381 13.0574C11.7811 13.3272 11.7152 13.6031 11.555 13.8244V13.8239C11.4755 13.9337 11.3751 14.0268 11.2597 14.0978C11.1442 14.1688 11.0158 14.2163 10.8819 14.2376C10.748 14.2589 10.6113 14.2537 10.4794 14.2221C10.3476 14.1905 10.2233 14.1333 10.1136 14.0536C10.07 14.0227 9.34438 13.4902 8.28875 12.3614C5.80297 15.113 3.62609 16.3181 3.52484 16.3734C3.28472 16.5044 3.0024 16.5346 2.74 16.4574C2.47759 16.3803 2.2566 16.202 2.12563 15.9619C1.99465 15.7217 1.96444 15.4394 2.04162 15.177C2.1188 14.9146 2.29706 14.6936 2.53719 14.5627C3.29234 14.1464 5.09703 12.8569 6.93641 10.778C6.89375 10.7236 6.85109 10.6692 6.80797 10.6134C5.01219 8.28375 4.35734 6.74391 4.33016 6.67922C4.22821 6.42767 4.22954 6.14607 4.33387 5.8955C4.43819 5.64493 4.63709 5.44559 4.88743 5.34072C5.13778 5.23585 5.41937 5.23389 5.67114 5.33529C5.92291 5.43668 6.12456 5.63324 6.23234 5.88234C6.23656 5.89266 6.78359 7.15687 8.25594 9.11062C9.50938 7.28906 10.3311 5.29453 10.7773 4.03125H1.53125C1.25775 4.03125 0.995443 3.9226 0.802046 3.7292C0.608649 3.53581 0.5 3.2735 0.5 3C0.5 2.7265 0.608649 2.46419 0.802046 2.2708C0.995443 2.0774 1.25775 1.96875 1.53125 1.96875H6.96875V1.03125C6.96875 0.757745 7.0774 0.495443 7.2708 0.302046C7.46419 0.108649 7.7265 0 8 0C8.2735 0 8.53581 0.108649 8.7292 0.302046C8.9226 0.495443 9.03125 0.757745 9.03125 1.03125V1.96875H14.4688C14.7423 1.96875 15.0046 2.0774 15.198 2.2708C15.3913 2.46419 15.5 2.7265 15.5 3C15.5 3.2735 15.3913 3.53581 15.198 3.7292C15.0046 3.9226 14.7423 4.03125 14.4688 4.03125H12.9561C12.5267 5.37844 11.4739 8.24109 9.61531 10.7573C10.6133 11.8534 11.3035 12.3687 11.3253 12.385L11.3258 12.3853C11.5468 12.5459 11.6951 12.7876 11.7381 13.0574ZM17.2032 7.85625L21.4219 18.075H21.4215C21.4862 18.2316 21.5113 18.4018 21.4946 18.5704C21.4779 18.739 21.4199 18.9009 21.3257 19.0418C21.2315 19.1827 21.1041 19.2982 20.9547 19.3781C20.8052 19.458 20.6384 19.4999 20.469 19.5C20.2647 19.5 20.0651 19.4394 19.8954 19.3258C19.7256 19.2123 19.5934 19.0508 19.5155 18.862L18.6563 16.7813H13.8437L12.9844 18.862C12.9332 18.9879 12.8576 19.1023 12.762 19.1989C12.6665 19.2954 12.5527 19.3721 12.4274 19.4245C12.3021 19.477 12.1676 19.5041 12.0318 19.5045C11.8959 19.5048 11.7613 19.4783 11.6358 19.4264C11.5102 19.3746 11.3961 19.2984 11.3001 19.2024C11.204 19.1063 11.1279 18.9922 11.076 18.8666C11.0242 18.7411 10.9977 18.6065 10.998 18.4706C10.9984 18.3348 11.0256 18.2003 11.078 18.075L15.2968 7.85625C15.3747 7.66754 15.5069 7.5062 15.6766 7.39268C15.8463 7.27915 16.0458 7.21855 16.25 7.21855C16.4541 7.21855 16.6537 7.27915 16.8234 7.39268C16.9931 7.5062 17.1253 7.66754 17.2032 7.85625ZM16.2502 10.9523L14.6954 14.7188H17.8051L16.2502 10.9523Z" fill="#595959"/>
</svg>
