<svg width="12" height="12" viewBox="0 0 12 12" fill="none" xmlns="http://www.w3.org/2000/svg">
<path d="M11.7787 6.7179C11.9202 6.57738 11.9998 6.38674 12 6.1879V5.8079C11.9977 5.60948 11.9184 5.41962 11.7787 5.2779L6.6076 0.147899C6.51315 0.0532428 6.38458 0 6.25045 0C6.11633 0 5.98776 0.0532428 5.89331 0.147899L5.17902 0.857899C5.08438 0.950063 5.03106 1.07621 5.03106 1.2079C5.03106 1.33959 5.08438 1.46574 5.17902 1.5579L9.65592 5.9979L5.17902 10.4379C5.08379 10.5318 5.03022 10.6596 5.03022 10.7929C5.03022 10.9262 5.08379 11.054 5.17902 11.1479L5.89331 11.8479C5.98776 11.9426 6.11633 11.9958 6.25045 11.9958C6.38458 11.9958 6.51315 11.9426 6.6076 11.8479L11.7787 6.7179Z" fill="#2170AC"/>
<path d="M6.7484 6.7179C6.88994 6.57738 6.96955 6.38674 6.96973 6.1879V5.8079C6.96741 5.60948 6.88812 5.41962 6.7484 5.2779L1.57733 0.147899C1.48288 0.0532428 1.35431 0 1.22018 0C1.08606 0 0.957486 0.0532428 0.863035 0.147899L0.148743 0.857899C0.0541103 0.950063 0.000782607 1.07621 0.000782607 1.2079C0.000782607 1.33959 0.0541103 1.46574 0.148743 1.5579L4.62564 5.9979L0.148743 10.4379C0.0535145 10.5318 -5.01863e-05 10.6596 -5.01863e-05 10.7929C-5.01863e-05 10.9262 0.0535145 11.054 0.148743 11.1479L0.863035 11.8479C0.957486 11.9426 1.08606 11.9958 1.22018 11.9958C1.35431 11.9958 1.48288 11.9426 1.57733 11.8479L6.7484 6.7179Z" fill="#2170AC"/>
</svg>
