<svg width="132" height="114" viewBox="0 0 132 114" fill="none" xmlns="http://www.w3.org/2000/svg">
<path fill-rule="evenodd" clip-rule="evenodd" d="M57.1766 74.6374C57.1766 74.6374 59.3072 82.6714 63.2283 85.7669C37.5968 110.881 -4.2716 77.9572 19.5658 46.611C19.5658 46.611 30.0975 32.4377 49.5376 37.1363C49.5376 37.1363 68.5141 41.1419 71.4571 62.4005C69.3433 84.3567 95.5725 89.8269 104.98 73.1555C104.98 73.1555 112.609 57.8605 96.5762 49.696C96.5762 49.696 83.8742 43.0718 74.1154 56.243C74.1154 56.243 73.6213 51.0922 68.1224 45.1614C86.997 24.6576 124.722 41.7927 117.692 72.5241C113.031 93.2892 86.3007 101.863 69.1536 87.1392C69.1536 87.1392 60.9389 80.2939 59.8236 68.9251C62.7825 47.1764 32.9973 39.2683 25.2726 59.9818C19.5785 78.2564 44.0367 92.7743 57.1766 74.6374V74.6374Z" fill="#EEF6FC"/>
<path d="M41.9513 74.4598C46.7208 74.4598 50.5872 70.4595 50.5872 65.5248C50.5872 60.5902 46.7208 56.5898 41.9513 56.5898C37.1819 56.5898 33.3154 60.5902 33.3154 65.5248C33.3154 70.4595 37.1819 74.4598 41.9513 74.4598Z" fill="#EEF6FC"/>
<path d="M89.1574 74.4598C93.9268 74.4598 97.7933 70.4595 97.7933 65.5248C97.7933 60.5902 93.9268 56.5898 89.1574 56.5898C84.3879 56.5898 80.5215 60.5902 80.5215 65.5248C80.5215 70.4595 84.3879 74.4598 89.1574 74.4598Z" fill="#EEF6FC"/>
<path fill-rule="evenodd" clip-rule="evenodd" d="M54.2324 96.2929C58.4031 94.5673 62.2836 92.3222 65.5247 89.0371C68.9286 92.2954 72.8503 94.3159 76.9565 96.3853C66.272 116.483 64.3865 115.549 54.2324 96.2929Z" fill="#EEF6FC"/>
<path fill-rule="evenodd" clip-rule="evenodd" d="M4.53358 37.37L1.55945 36.1452C1.55945 36.1452 -1.90253 33.4185 1.48997 30.7843L64.7858 1.94629C64.7858 1.94629 65.6685 1.48425 66.7374 1.90018C67.8063 2.3161 128.477 30.2299 128.477 30.2299C128.477 30.2299 132.659 31.9399 130.615 35.3598L116.627 42.015C116.627 42.015 114.35 43.4938 111.701 40.5823C100.608 29.9197 79.2127 29.0915 68.9021 38.7337C68.9021 38.7337 65.4417 42.1531 62.6593 38.9992C62.6593 38.9992 44.502 23.7376 22.7538 37.9717C19.9356 39.2423 17.3943 44.2211 14.0641 41.623L8.25524 39.0349L8.20813 93.1061C8.20813 93.1061 14.621 95.369 12.0649 101.608C6.57025 111.498 -6.70104 99.3412 4.39755 93.1278L4.53358 37.37Z" fill="#EEF6FC"/>
</svg>
