<svg width="716" height="200" viewBox="0 0 716 200" fill="none" xmlns="http://www.w3.org/2000/svg">
<path fill-rule="evenodd" clip-rule="evenodd" d="M103.571 132.805C103.571 132.805 107.43 147.439 114.533 153.077C68.1033 198.821 -7.73911 138.852 35.4412 81.7551C35.4412 81.7551 54.5188 55.9386 89.7334 64.497C89.7334 64.497 124.108 71.7933 129.44 110.515C125.61 150.508 173.123 160.472 190.164 130.106C190.164 130.106 203.983 102.246 174.941 87.3743C174.941 87.3743 151.932 75.3085 134.255 99.2997C134.255 99.2997 133.36 89.9175 123.399 79.1146C157.589 41.7674 225.926 72.9786 213.192 128.955C204.748 166.779 156.328 182.396 125.267 155.576C125.267 155.576 110.386 143.108 108.366 122.4C113.726 82.785 59.7716 68.3805 45.7788 106.11C35.4641 139.397 79.7689 165.841 103.571 132.805V132.805Z" fill="white"/>
<path d="M75.993 132.481C84.6326 132.481 91.6364 125.195 91.6364 116.206C91.6364 107.218 84.6326 99.9315 75.993 99.9315C67.3533 99.9315 60.3495 107.218 60.3495 116.206C60.3495 125.195 67.3533 132.481 75.993 132.481Z" fill="white"/>
<path d="M161.505 132.481C170.144 132.481 177.148 125.195 177.148 116.206C177.148 107.218 170.144 99.9315 161.505 99.9315C152.865 99.9315 145.861 107.218 145.861 116.206C145.861 125.195 152.865 132.481 161.505 132.481Z" fill="white"/>
<path fill-rule="evenodd" clip-rule="evenodd" d="M98.2409 172.253C105.796 169.11 112.825 165.021 118.696 159.037C124.862 164.972 131.966 168.652 139.405 172.421C120.05 209.029 116.635 207.329 98.2409 172.253Z" fill="white"/>
<path fill-rule="evenodd" clip-rule="evenodd" d="M8.21234 64.9239L2.82487 62.693C2.82487 62.693 -3.44633 57.7264 2.69901 52.9282L117.356 0.400231C117.356 0.400231 118.955 -0.441366 120.891 0.316233C122.828 1.07383 232.729 51.9184 232.729 51.9184C232.729 51.9184 240.306 55.033 236.602 61.2624L211.264 73.3848C211.264 73.3848 207.139 76.0783 202.341 70.7751C182.246 51.3533 143.49 49.8448 124.813 67.408C124.813 67.408 118.544 73.6362 113.504 67.8914C113.504 67.8914 80.6132 40.0928 41.2174 66.02C36.1123 68.3344 31.5089 77.4031 25.4763 72.6706L14.9539 67.9565L14.8686 166.446C14.8686 166.446 26.4851 170.568 21.855 181.932C11.9017 199.947 -12.1386 177.803 7.96594 166.486L8.21234 64.9239Z" fill="white"/>
<path d="M291.473 49.7164V54.0086H277.257V49.7164H291.473ZM279.055 27.3018V54.0086H273.552V27.3018H279.055ZM289.62 38.1789V42.361H277.257V38.1789H289.62ZM291.454 27.3018V31.6123H277.257V27.3018H291.454Z" fill="white"/>
<path d="M299.213 27.3018L304.239 36.6198L309.265 27.3018H315.556L307.798 40.5451L315.758 54.0086H309.412L304.239 44.5071L299.067 54.0086H292.683L300.662 40.5451L292.885 27.3018H299.213Z" fill="white"/>
<path d="M328.928 44.4888H322.123V40.1966H328.928C329.98 40.1966 330.836 40.0254 331.496 39.683C332.156 39.3284 332.639 38.8393 332.945 38.2156C333.251 37.592 333.404 36.8889 333.404 36.1062C333.404 35.3114 333.251 34.5716 332.945 33.8868C332.639 33.202 332.156 32.6517 331.496 32.236C330.836 31.8202 329.98 31.6123 328.928 31.6123H324.031V54.0086H318.528V27.3018H328.928C331.019 27.3018 332.811 27.6809 334.303 28.4391C335.807 29.185 336.956 30.2183 337.751 31.5389C338.546 32.8596 338.943 34.3698 338.943 36.0696C338.943 37.7937 338.546 39.2856 337.751 40.5451C336.956 41.8047 335.807 42.7768 334.303 43.4616C332.811 44.1464 331.019 44.4888 328.928 44.4888Z" fill="white"/>
<path d="M359.909 49.7164V54.0086H346.464V49.7164H359.909ZM348.243 27.3018V54.0086H342.74V27.3018H348.243Z" fill="white"/>
<path d="M383.791 40.0315V41.2972C383.791 43.3271 383.516 45.1491 382.965 46.7632C382.415 48.3774 381.638 49.7531 380.636 50.8903C379.633 52.0153 378.435 52.8774 377.041 53.4766C375.659 54.0758 374.124 54.3754 372.437 54.3754C370.761 54.3754 369.227 54.0758 367.833 53.4766C366.451 52.8774 365.253 52.0153 364.238 50.8903C363.223 49.7531 362.434 48.3774 361.871 46.7632C361.321 45.1491 361.046 43.3271 361.046 41.2972V40.0315C361.046 37.9894 361.321 36.1674 361.871 34.5655C362.422 32.9513 363.198 31.5756 364.201 30.4384C365.216 29.3012 366.414 28.4329 367.796 27.8338C369.19 27.2346 370.725 26.935 372.4 26.935C374.087 26.935 375.622 27.2346 377.004 27.8338C378.398 28.4329 379.596 29.3012 380.599 30.4384C381.614 31.5756 382.397 32.9513 382.947 34.5655C383.509 36.1674 383.791 37.9894 383.791 40.0315ZM378.233 41.2972V39.9949C378.233 38.5764 378.104 37.3291 377.848 36.253C377.591 35.1769 377.212 34.272 376.71 33.5383C376.209 32.8046 375.598 32.2543 374.876 31.8875C374.155 31.5084 373.329 31.3188 372.4 31.3188C371.471 31.3188 370.645 31.5084 369.924 31.8875C369.214 32.2543 368.609 32.8046 368.108 33.5383C367.619 34.272 367.246 35.1769 366.989 36.253C366.732 37.3291 366.604 38.5764 366.604 39.9949V41.2972C366.604 42.7034 366.732 43.9507 366.989 45.0391C367.246 46.1151 367.625 47.0262 368.126 47.7721C368.628 48.5058 369.239 49.0622 369.96 49.4413C370.682 49.8203 371.507 50.0099 372.437 50.0099C373.366 50.0099 374.191 49.8203 374.913 49.4413C375.634 49.0622 376.24 48.5058 376.729 47.7721C377.218 47.0262 377.591 46.1151 377.848 45.0391C378.104 43.9507 378.233 42.7034 378.233 41.2972Z" fill="white"/>
<path d="M387.753 27.3018H397.713C399.755 27.3018 401.51 27.6075 402.977 28.2189C404.457 28.8304 405.594 29.7353 406.389 30.9336C407.184 32.132 407.581 33.6055 407.581 35.3542C407.581 36.7849 407.336 38.0139 406.847 39.041C406.37 40.056 405.692 40.9059 404.811 41.5907C403.943 42.2632 402.922 42.8013 401.748 43.2048L400.005 44.1219H391.348L391.311 39.8298H397.749C398.715 39.8298 399.516 39.6586 400.152 39.3162C400.788 38.9738 401.265 38.4969 401.583 37.8855C401.913 37.274 402.078 36.5648 402.078 35.7577C402.078 34.9017 401.919 34.1619 401.601 33.5383C401.283 32.9146 400.8 32.4377 400.152 32.1076C399.504 31.7774 398.691 31.6123 397.713 31.6123H393.255V54.0086H387.753V27.3018ZM402.683 54.0086L396.594 42.1042L402.408 42.0676L408.571 53.7518V54.0086H402.683Z" fill="white"/>
<path d="M429.739 49.7164V54.0086H415.523V49.7164H429.739ZM417.321 27.3018V54.0086H411.818V27.3018H417.321ZM427.886 38.1789V42.361H415.523V38.1789H427.886ZM429.72 27.3018V31.6123H415.523V27.3018H429.72Z" fill="white"/>
<path d="M432.875 51.4589C432.875 50.6763 433.144 50.0221 433.682 49.4963C434.233 48.9705 434.96 48.7076 435.865 48.7076C436.77 48.7076 437.491 48.9705 438.03 49.4963C438.58 50.0221 438.855 50.6763 438.855 51.4589C438.855 52.2416 438.58 52.8958 438.03 53.4216C437.491 53.9474 436.77 54.2103 435.865 54.2103C434.96 54.2103 434.233 53.9474 433.682 53.4216C433.144 52.8958 432.875 52.2416 432.875 51.4589Z" fill="white"/>
<path d="M470.359 31.3199L463.025 53.6733H457.117L467.136 26.7084H470.896L470.359 31.3199ZM476.452 53.6733L469.099 31.3199L468.507 26.7084H472.303L482.378 53.6733H476.452ZM476.118 43.6356V47.9877H461.876V43.6356H476.118Z" fill="white"/>
<path d="M500.176 44.7282H505.713C505.602 46.5432 505.102 48.1544 504.213 49.5619C503.336 50.9694 502.108 52.0682 500.527 52.8584C498.959 53.6486 497.07 54.0437 494.86 54.0437C493.132 54.0437 491.582 53.7474 490.212 53.1547C488.841 52.5498 487.668 51.6855 486.693 50.562C485.73 49.4384 484.995 48.0803 484.489 46.4876C483.983 44.8949 483.73 43.1108 483.73 41.1354V39.2649C483.73 37.2894 483.989 35.5054 484.508 33.9126C485.039 32.3076 485.792 30.9433 486.767 29.8198C487.755 28.6962 488.934 27.832 490.304 27.227C491.675 26.622 493.206 26.3195 494.897 26.3195C497.144 26.3195 499.04 26.727 500.583 27.5418C502.139 28.3567 503.342 29.4802 504.194 30.9124C505.059 32.3446 505.577 33.9744 505.75 35.8017H500.194C500.132 34.7152 499.916 33.7954 499.546 33.0422C499.175 32.2767 498.614 31.7026 497.861 31.3199C497.12 30.9248 496.132 30.7272 494.897 30.7272C493.971 30.7272 493.163 30.9001 492.471 31.2458C491.78 31.5915 491.2 32.1162 490.73 32.82C490.261 33.5237 489.909 34.4127 489.675 35.4868C489.453 36.5486 489.341 37.7956 489.341 39.2278V41.1354C489.341 42.5305 489.446 43.759 489.656 44.8208C489.866 45.8703 490.187 46.7592 490.619 47.4877C491.064 48.2038 491.632 48.747 492.323 49.1174C493.027 49.4755 493.873 49.6545 494.86 49.6545C496.021 49.6545 496.978 49.4693 497.731 49.0989C498.484 48.7285 499.058 48.1791 499.453 47.4506C499.861 46.7222 500.101 45.8147 500.176 44.7282Z" fill="white"/>
<path d="M527.344 37.6907V42.0243H513.269V37.6907H527.344ZM514.917 26.7084V53.6733H509.361V26.7084H514.917ZM531.307 26.7084V53.6733H525.77V26.7084H531.307Z" fill="white"/>
<path d="M542.049 26.7084V53.6733H536.512V26.7084H542.049Z" fill="white"/>
<path d="M565.347 49.3397V53.6733H550.994V49.3397H565.347ZM552.809 26.7084V53.6733H547.253V26.7084H552.809ZM563.476 37.6907V41.9132H550.994V37.6907H563.476ZM565.328 26.7084V31.0606H550.994V26.7084H565.328Z" fill="white"/>
<path d="M578.311 48.0433L584.663 26.7084H590.849L581.459 53.6733H577.385L578.311 48.0433ZM572.459 26.7084L578.792 48.0433L579.755 53.6733H575.644L566.31 26.7084H572.459Z" fill="white"/>
<path d="M611.461 49.3397V53.6733H597.109V49.3397H611.461ZM598.923 26.7084V53.6733H593.368V26.7084H598.923ZM609.591 37.6907V41.9132H597.109V37.6907H609.591ZM611.443 26.7084V31.0606H597.109V26.7084H611.443Z" fill="white"/>
<path d="M614.628 51.099C614.628 50.3089 614.9 49.6483 615.443 49.1174C615.999 48.5865 616.733 48.3211 617.647 48.3211C618.561 48.3211 619.289 48.5865 619.832 49.1174C620.388 49.6483 620.666 50.3089 620.666 51.099C620.666 51.8892 620.388 52.5498 619.832 53.0807C619.289 53.6116 618.561 53.877 617.647 53.877C616.733 53.877 615.999 53.6116 615.443 53.0807C614.9 52.5498 614.628 51.8892 614.628 51.099Z" fill="white"/>
<path fill-rule="evenodd" clip-rule="evenodd" d="M316.291 74.244C342.233 74.244 363.263 95.1986 363.263 121.047C363.263 146.896 342.233 167.851 316.291 167.851C290.35 167.851 269.32 146.896 269.32 121.047C269.32 95.1986 290.35 74.244 316.291 74.244ZM316.654 97.8141C327.01 97.8141 335.406 108.169 335.406 120.942C335.406 133.716 327.01 144.07 316.654 144.07C306.298 144.07 297.902 133.716 297.902 120.942C297.902 108.169 306.298 97.8141 316.654 97.8141Z" fill="white"/>
<path fill-rule="evenodd" clip-rule="evenodd" d="M436.679 168.019L413.445 167.851L413.527 74.0757H436.508L436.679 168.019Z" fill="white"/>
<path fill-rule="evenodd" clip-rule="evenodd" d="M397.115 168.019L373.881 167.851L373.963 74.0757H396.943L397.115 168.019Z" fill="white"/>
<path fill-rule="evenodd" clip-rule="evenodd" d="M520.434 88.3035C520.434 88.3035 505.786 65.0704 474.808 77.8656C474.808 77.8656 445.597 94.2808 453.342 133.508C453.342 133.508 455.36 154.216 476.91 165.159C476.91 165.159 502.752 176.608 520.43 154.132L520.429 166.758H548.208L548.293 75.5083L520.429 75.5928L520.434 88.3035ZM500.148 98.2779C511.446 98.2779 520.604 108.473 520.604 121.048C520.604 133.623 511.446 143.818 500.148 143.818C488.851 143.818 479.693 133.623 479.693 121.048C479.693 108.473 488.851 98.2779 500.148 98.2779Z" fill="white"/>
<path fill-rule="evenodd" clip-rule="evenodd" d="M562.224 74.0792L591.013 74.1216L591.057 92.2621L609.956 92.3048L610.106 116.464L591.018 116.539L591.104 137.964C591.104 137.964 591.314 143.52 598.596 143.646H610.171L610.046 167.763C610.046 167.763 588.917 169.194 578.731 165.238C578.731 165.238 560.885 159.009 562.148 134.092L562.224 74.0792Z" fill="white"/>
<path fill-rule="evenodd" clip-rule="evenodd" d="M668.807 74.244C694.748 74.244 715.778 95.1986 715.778 121.047C715.778 146.896 694.748 167.851 668.807 167.851C642.865 167.851 621.835 146.896 621.835 121.047C621.835 95.1986 642.865 74.244 668.807 74.244ZM669.169 97.8141C679.526 97.8141 687.921 108.169 687.921 120.942C687.921 133.716 679.526 144.07 669.169 144.07C658.813 144.07 650.418 133.716 650.418 120.942C650.418 108.169 658.813 97.8141 669.169 97.8141Z" fill="white"/>
</svg>
