<svg width="916" height="760" viewBox="0 0 916 760" fill="none" xmlns="http://www.w3.org/2000/svg">
<g opacity="0.04">
<path fill-rule="evenodd" clip-rule="evenodd" d="M400.105 506.626C400.105 506.626 414.828 562.452 441.925 583.961C264.802 758.467 -24.5233 529.694 140.202 311.881C140.202 311.881 212.979 213.396 347.317 246.045C347.317 246.045 478.452 273.879 498.789 421.597C484.182 574.162 665.435 612.173 730.443 496.329C730.443 496.329 783.16 390.05 672.371 333.318C672.371 333.318 584.595 287.289 517.158 378.811C517.158 378.811 513.744 343.019 475.745 301.808C606.175 159.335 866.87 278.401 818.288 491.942C786.079 636.231 601.363 695.807 482.871 593.497C482.871 593.497 426.104 545.931 418.397 466.934C438.845 315.81 233.018 260.859 179.638 404.79C140.289 531.774 309.304 632.653 400.105 506.626Z" fill="white"/>
<path d="M294.9 505.393C327.858 505.393 354.577 477.596 354.577 443.307C354.577 409.018 327.858 381.221 294.9 381.221C261.941 381.221 235.223 409.018 235.223 443.307C235.223 477.596 261.941 505.393 294.9 505.393Z" fill="white"/>
<path d="M621.112 505.393C654.071 505.393 680.789 477.596 680.789 443.307C680.789 409.018 654.071 381.221 621.112 381.221C588.153 381.221 561.435 409.018 561.435 443.307C561.435 477.596 588.153 505.393 621.112 505.393Z" fill="white"/>
<path fill-rule="evenodd" clip-rule="evenodd" d="M379.772 657.115C408.593 645.124 435.408 629.524 457.806 606.697C481.328 629.338 508.428 643.377 536.803 657.757C462.97 797.408 449.94 790.922 379.772 657.115Z" fill="white"/>
<path fill-rule="evenodd" clip-rule="evenodd" d="M36.3286 247.673L15.7764 239.163C15.7764 239.163 -8.14713 220.216 15.2962 201.912L452.693 1.52681C452.693 1.52681 458.792 -1.68373 466.179 1.20637C473.565 4.09648 892.822 198.059 892.822 198.059C892.822 198.059 921.724 209.941 907.594 233.705L810.936 279.95C810.936 279.95 795.2 290.225 776.896 269.995C700.236 195.904 552.388 190.149 481.138 257.149C481.138 257.149 457.226 280.909 437.998 258.994C437.998 258.994 312.525 152.947 162.237 251.854C142.762 260.684 125.201 295.279 102.188 277.226L62.0466 259.242L61.7211 634.963C61.7211 634.963 106.036 650.688 88.373 694.04C50.4028 762.761 -41.3066 678.289 35.3887 635.114L36.3286 247.673Z" fill="white"/>
</g>
<g filter="url(#filter0_ddddddd_512_10466)">
<path fill-rule="evenodd" clip-rule="evenodd" d="M203.571 412.805C203.571 412.805 207.431 427.439 214.534 433.077C168.103 478.821 92.261 418.852 135.441 361.755C135.441 361.755 154.519 335.939 189.734 344.497C189.734 344.497 224.108 351.793 229.44 390.515C225.611 430.508 273.123 440.472 290.164 410.106C290.164 410.106 303.983 382.246 274.942 367.374C274.942 367.374 251.932 355.308 234.255 379.3C234.255 379.3 233.36 369.918 223.399 359.115C257.589 321.767 325.927 352.979 313.192 408.955C304.748 446.779 256.328 462.396 225.267 435.576C225.267 435.576 210.386 423.108 208.366 402.4C213.726 362.785 159.772 348.38 145.779 386.11C135.464 419.397 179.769 445.841 203.571 412.805Z" fill="white"/>
<path d="M175.993 412.481C184.633 412.481 191.637 405.195 191.637 396.206C191.637 387.218 184.633 379.931 175.993 379.931C167.353 379.931 160.35 387.218 160.35 396.206C160.35 405.195 167.353 412.481 175.993 412.481Z" fill="white"/>
<path d="M261.505 412.481C270.144 412.481 277.148 405.195 277.148 396.206C277.148 387.218 270.144 379.931 261.505 379.931C252.865 379.931 245.861 387.218 245.861 396.206C245.861 405.195 252.865 412.481 261.505 412.481Z" fill="white"/>
<path fill-rule="evenodd" clip-rule="evenodd" d="M198.241 452.253C205.796 449.11 212.825 445.021 218.696 439.037C224.862 444.972 231.966 448.652 239.405 452.421C220.05 489.029 216.635 487.329 198.241 452.253Z" fill="white"/>
<path fill-rule="evenodd" clip-rule="evenodd" d="M108.212 344.924L102.825 342.693C102.825 342.693 96.5537 337.726 102.699 332.928L217.356 280.4C217.356 280.4 218.955 279.559 220.891 280.316C222.828 281.074 332.729 331.918 332.729 331.918C332.729 331.918 340.306 335.033 336.602 341.262L311.264 353.385C311.264 353.385 307.139 356.078 302.341 350.775C282.246 331.353 243.49 329.845 224.813 347.408C224.813 347.408 218.544 353.636 213.504 347.891C213.504 347.891 180.613 320.093 141.217 346.02C136.112 348.334 131.509 357.403 125.476 352.671L114.954 347.956L114.869 446.446C114.869 446.446 126.485 450.568 121.855 461.932C111.902 479.947 87.8614 457.803 107.966 446.486L108.212 344.924Z" fill="white"/>
<path d="M391.473 329.716V334.009H377.257V329.716H391.473ZM379.055 307.302V334.009H373.552V307.302H379.055ZM389.62 318.179V322.361H377.257V318.179H389.62ZM391.454 307.302V311.612H377.257V307.302H391.454Z" fill="white"/>
<path d="M399.213 307.302L404.239 316.62L409.265 307.302H415.556L407.798 320.545L415.758 334.009H409.412L404.239 324.507L399.066 334.009H392.683L400.662 320.545L392.885 307.302H399.213Z" fill="white"/>
<path d="M428.928 324.489H422.123V320.197H428.928C429.98 320.197 430.836 320.025 431.496 319.683C432.156 319.328 432.639 318.839 432.945 318.216C433.251 317.592 433.404 316.889 433.404 316.106C433.404 315.311 433.251 314.572 432.945 313.887C432.639 313.202 432.156 312.652 431.496 312.236C430.836 311.82 429.98 311.612 428.928 311.612H424.031V334.009H418.528V307.302H428.928C431.019 307.302 432.811 307.681 434.302 308.439C435.807 309.185 436.956 310.218 437.751 311.539C438.546 312.86 438.943 314.37 438.943 316.07C438.943 317.794 438.546 319.286 437.751 320.545C436.956 321.805 435.807 322.777 434.302 323.462C432.811 324.146 431.019 324.489 428.928 324.489Z" fill="white"/>
<path d="M459.909 329.716V334.009H446.464V329.716H459.909ZM448.243 307.302V334.009H442.74V307.302H448.243Z" fill="white"/>
<path d="M483.791 320.032V321.297C483.791 323.327 483.515 325.149 482.965 326.763C482.415 328.377 481.638 329.753 480.636 330.89C479.633 332.015 478.435 332.877 477.041 333.477C475.659 334.076 474.124 334.375 472.437 334.375C470.761 334.375 469.227 334.076 467.833 333.477C466.451 332.877 465.252 332.015 464.237 330.89C463.223 329.753 462.434 328.377 461.871 326.763C461.321 325.149 461.046 323.327 461.046 321.297V320.032C461.046 317.989 461.321 316.167 461.871 314.565C462.422 312.951 463.198 311.576 464.201 310.438C465.216 309.301 466.414 308.433 467.796 307.834C469.19 307.235 470.725 306.935 472.4 306.935C474.087 306.935 475.622 307.235 477.004 307.834C478.398 308.433 479.596 309.301 480.599 310.438C481.614 311.576 482.397 312.951 482.947 314.565C483.509 316.167 483.791 317.989 483.791 320.032ZM478.233 321.297V319.995C478.233 318.576 478.104 317.329 477.848 316.253C477.591 315.177 477.212 314.272 476.71 313.538C476.209 312.805 475.598 312.254 474.876 311.887C474.155 311.508 473.329 311.319 472.4 311.319C471.471 311.319 470.645 311.508 469.924 311.887C469.214 312.254 468.609 312.805 468.108 313.538C467.619 314.272 467.246 315.177 466.989 316.253C466.732 317.329 466.604 318.576 466.604 319.995V321.297C466.604 322.703 466.732 323.951 466.989 325.039C467.246 326.115 467.625 327.026 468.126 327.772C468.627 328.506 469.239 329.062 469.96 329.441C470.682 329.82 471.507 330.01 472.437 330.01C473.366 330.01 474.191 329.82 474.913 329.441C475.634 329.062 476.24 328.506 476.729 327.772C477.218 327.026 477.591 326.115 477.848 325.039C478.104 323.951 478.233 322.703 478.233 321.297Z" fill="white"/>
<path d="M487.753 307.302H497.713C499.755 307.302 501.509 307.608 502.977 308.219C504.457 308.83 505.594 309.735 506.389 310.934C507.183 312.132 507.581 313.606 507.581 315.354C507.581 316.785 507.336 318.014 506.847 319.041C506.37 320.056 505.692 320.906 504.811 321.591C503.943 322.263 502.922 322.801 501.748 323.205L500.005 324.122H491.348L491.311 319.83H497.749C498.715 319.83 499.516 319.659 500.152 319.316C500.788 318.974 501.265 318.497 501.583 317.885C501.913 317.274 502.078 316.565 502.078 315.758C502.078 314.902 501.919 314.162 501.601 313.538C501.283 312.915 500.8 312.438 500.152 312.108C499.504 311.777 498.691 311.612 497.713 311.612H493.255V334.009H487.753V307.302ZM502.683 334.009L496.594 322.104L502.408 322.068L508.571 333.752V334.009H502.683Z" fill="white"/>
<path d="M529.739 329.716V334.009H515.523V329.716H529.739ZM517.321 307.302V334.009H511.818V307.302H517.321ZM527.886 318.179V322.361H515.523V318.179H527.886ZM529.72 307.302V311.612H515.523V307.302H529.72Z" fill="white"/>
<path d="M532.875 331.459C532.875 330.676 533.144 330.022 533.682 329.496C534.233 328.97 534.96 328.708 535.865 328.708C536.77 328.708 537.491 328.97 538.029 329.496C538.58 330.022 538.855 330.676 538.855 331.459C538.855 332.242 538.58 332.896 538.029 333.422C537.491 333.947 536.77 334.21 535.865 334.21C534.96 334.21 534.233 333.947 533.682 333.422C533.144 332.896 532.875 332.242 532.875 331.459Z" fill="white"/>
<path d="M570.358 311.32L563.025 333.673H557.117L567.136 306.708H570.895L570.358 311.32ZM576.451 333.673L569.099 311.32L568.506 306.708H572.303L582.378 333.673H576.451ZM576.118 323.636V327.988H561.876V323.636H576.118Z" fill="white"/>
<path d="M600.175 324.728H605.713C605.602 326.543 605.102 328.154 604.213 329.562C603.336 330.969 602.108 332.068 600.527 332.858C598.959 333.649 597.07 334.044 594.86 334.044C593.132 334.044 591.582 333.747 590.212 333.155C588.841 332.55 587.668 331.686 586.693 330.562C585.73 329.438 584.995 328.08 584.489 326.488C583.983 324.895 583.73 323.111 583.73 321.135V319.265C583.73 317.289 583.989 315.505 584.508 313.913C585.038 312.308 585.792 310.943 586.767 309.82C587.755 308.696 588.934 307.832 590.304 307.227C591.675 306.622 593.206 306.32 594.897 306.32C597.144 306.32 599.04 306.727 600.583 307.542C602.139 308.357 603.342 309.48 604.194 310.912C605.058 312.345 605.577 313.974 605.75 315.802H600.194C600.132 314.715 599.916 313.795 599.546 313.042C599.175 312.277 598.614 311.703 597.86 311.32C597.12 310.925 596.132 310.727 594.897 310.727C593.971 310.727 593.163 310.9 592.471 311.246C591.78 311.591 591.199 312.116 590.73 312.82C590.261 313.524 589.909 314.413 589.675 315.487C589.452 316.549 589.341 317.796 589.341 319.228V321.135C589.341 322.531 589.446 323.759 589.656 324.821C589.866 325.87 590.187 326.759 590.619 327.488C591.064 328.204 591.632 328.747 592.323 329.117C593.027 329.475 593.872 329.654 594.86 329.654C596.021 329.654 596.978 329.469 597.731 329.099C598.484 328.729 599.058 328.179 599.453 327.451C599.861 326.722 600.101 325.815 600.175 324.728Z" fill="white"/>
<path d="M627.344 317.691V322.024H613.269V317.691H627.344ZM614.917 306.708V333.673H609.361V306.708H614.917ZM631.307 306.708V333.673H625.77V306.708H631.307Z" fill="white"/>
<path d="M642.049 306.708V333.673H636.511V306.708H642.049Z" fill="white"/>
<path d="M665.347 329.34V333.673H650.994V329.34H665.347ZM652.809 306.708V333.673H647.253V306.708H652.809ZM663.476 317.691V321.913H650.994V317.691H663.476ZM665.328 306.708V311.061H650.994V306.708H665.328Z" fill="white"/>
<path d="M678.311 328.043L684.663 306.708H690.849L681.459 333.673H677.385L678.311 328.043ZM672.458 306.708L678.792 328.043L679.755 333.673H675.644L666.31 306.708H672.458Z" fill="white"/>
<path d="M711.461 329.34V333.673H697.108V329.34H711.461ZM698.923 306.708V333.673H693.367V306.708H698.923ZM709.591 317.691V321.913H697.108V317.691H709.591ZM711.443 306.708V311.061H697.108V306.708H711.443Z" fill="white"/>
<path d="M714.628 331.099C714.628 330.309 714.9 329.648 715.443 329.117C715.999 328.587 716.733 328.321 717.647 328.321C718.561 328.321 719.289 328.587 719.832 329.117C720.388 329.648 720.666 330.309 720.666 331.099C720.666 331.889 720.388 332.55 719.832 333.081C719.289 333.612 718.561 333.877 717.647 333.877C716.733 333.877 715.999 333.612 715.443 333.081C714.9 332.55 714.628 331.889 714.628 331.099Z" fill="white"/>
<path fill-rule="evenodd" clip-rule="evenodd" d="M416.291 354.244C442.233 354.244 463.263 375.199 463.263 401.047C463.263 426.896 442.233 447.851 416.291 447.851C390.35 447.851 369.32 426.896 369.32 401.047C369.32 375.199 390.35 354.244 416.291 354.244ZM416.654 377.814C427.01 377.814 435.406 388.169 435.406 400.942C435.406 413.716 427.01 424.07 416.654 424.07C406.298 424.07 397.902 413.716 397.902 400.942C397.902 388.169 406.298 377.814 416.654 377.814Z" fill="white"/>
<path fill-rule="evenodd" clip-rule="evenodd" d="M536.679 448.019L513.446 447.851L513.527 354.076H536.508L536.679 448.019Z" fill="white"/>
<path fill-rule="evenodd" clip-rule="evenodd" d="M497.115 448.019L473.881 447.851L473.963 354.076H496.943L497.115 448.019Z" fill="white"/>
<path fill-rule="evenodd" clip-rule="evenodd" d="M620.434 368.303C620.434 368.303 605.786 345.07 574.808 357.866C574.808 357.866 545.597 374.281 553.342 413.508C553.342 413.508 555.36 434.216 576.91 445.159C576.91 445.159 602.752 456.608 620.43 434.132L620.429 446.758H648.208L648.293 355.508L620.429 355.593L620.434 368.303ZM600.148 378.278C611.446 378.278 620.604 388.473 620.604 401.048C620.604 413.623 611.446 423.818 600.148 423.818C588.851 423.818 579.693 413.623 579.693 401.048C579.693 388.473 588.851 378.278 600.148 378.278Z" fill="white"/>
<path fill-rule="evenodd" clip-rule="evenodd" d="M662.224 354.079L691.014 354.122L691.057 372.262L709.956 372.305L710.106 396.464L691.018 396.539L691.104 417.964C691.104 417.964 691.314 423.52 698.596 423.646H710.171L710.046 447.763C710.046 447.763 688.917 449.194 678.731 445.238C678.731 445.238 660.886 439.009 662.148 414.092L662.224 354.079Z" fill="white"/>
<path fill-rule="evenodd" clip-rule="evenodd" d="M768.807 354.244C794.748 354.244 815.778 375.199 815.778 401.047C815.778 426.896 794.748 447.851 768.807 447.851C742.865 447.851 721.835 426.896 721.835 401.047C721.835 375.199 742.865 354.244 768.807 354.244ZM769.169 377.814C779.526 377.814 787.921 388.169 787.921 400.942C787.921 413.716 779.526 424.07 769.169 424.07C758.813 424.07 750.418 413.716 750.418 400.942C750.418 388.169 758.813 377.814 769.169 377.814Z" fill="white"/>
</g>
<defs>
<filter id="filter0_ddddddd_512_10466" x="-2" y="277.901" width="920" height="402.099" filterUnits="userSpaceOnUse" color-interpolation-filters="sRGB">
<feFlood flood-opacity="0" result="BackgroundImageFix"/>
<feColorMatrix in="SourceAlpha" type="matrix" values="0 0 0 0 0 0 0 0 0 0 0 0 0 0 0 0 0 0 127 0" result="hardAlpha"/>
<feOffset dy="1.34111"/>
<feGaussianBlur stdDeviation="1.72012"/>
<feColorMatrix type="matrix" values="0 0 0 0 0.0509804 0 0 0 0 0.176471 0 0 0 0 0.266667 0 0 0 0.0260204 0"/>
<feBlend mode="normal" in2="BackgroundImageFix" result="effect1_dropShadow_512_10466"/>
<feColorMatrix in="SourceAlpha" type="matrix" values="0 0 0 0 0 0 0 0 0 0 0 0 0 0 0 0 0 0 127 0" result="hardAlpha"/>
<feOffset dy="5.8309"/>
<feGaussianBlur stdDeviation="3.35277"/>
<feColorMatrix type="matrix" values="0 0 0 0 0.0509804 0 0 0 0 0.176471 0 0 0 0 0.266667 0 0 0 0.0451531 0"/>
<feBlend mode="normal" in2="effect1_dropShadow_512_10466" result="effect2_dropShadow_512_10466"/>
<feColorMatrix in="SourceAlpha" type="matrix" values="0 0 0 0 0 0 0 0 0 0 0 0 0 0 0 0 0 0 127 0" result="hardAlpha"/>
<feOffset dy="14.1691"/>
<feGaussianBlur stdDeviation="6.03499"/>
<feColorMatrix type="matrix" values="0 0 0 0 0.0509804 0 0 0 0 0.176471 0 0 0 0 0.266667 0 0 0 0.0606122 0"/>
<feBlend mode="normal" in2="effect2_dropShadow_512_10466" result="effect3_dropShadow_512_10466"/>
<feColorMatrix in="SourceAlpha" type="matrix" values="0 0 0 0 0 0 0 0 0 0 0 0 0 0 0 0 0 0 127 0" result="hardAlpha"/>
<feOffset dy="27.0554"/>
<feGaussianBlur stdDeviation="10.9038"/>
<feColorMatrix type="matrix" values="0 0 0 0 0.0509804 0 0 0 0 0.176471 0 0 0 0 0.266667 0 0 0 0.0756122 0"/>
<feBlend mode="normal" in2="effect3_dropShadow_512_10466" result="effect4_dropShadow_512_10466"/>
<feColorMatrix in="SourceAlpha" type="matrix" values="0 0 0 0 0 0 0 0 0 0 0 0 0 0 0 0 0 0 127 0" result="hardAlpha"/>
<feOffset dy="45.1895"/>
<feGaussianBlur stdDeviation="19.0962"/>
<feColorMatrix type="matrix" values="0 0 0 0 0.0509804 0 0 0 0 0.176471 0 0 0 0 0.266667 0 0 0 0.0933673 0"/>
<feBlend mode="normal" in2="effect4_dropShadow_512_10466" result="effect5_dropShadow_512_10466"/>
<feColorMatrix in="SourceAlpha" type="matrix" values="0 0 0 0 0 0 0 0 0 0 0 0 0 0 0 0 0 0 127 0" result="hardAlpha"/>
<feOffset dy="69.2711"/>
<feGaussianBlur stdDeviation="31.7493"/>
<feColorMatrix type="matrix" values="0 0 0 0 0.0509804 0 0 0 0 0.176471 0 0 0 0 0.266667 0 0 0 0.117092 0"/>
<feBlend mode="normal" in2="effect5_dropShadow_512_10466" result="effect6_dropShadow_512_10466"/>
<feColorMatrix in="SourceAlpha" type="matrix" values="0 0 0 0 0 0 0 0 0 0 0 0 0 0 0 0 0 0 127 0" result="hardAlpha"/>
<feOffset dy="100"/>
<feGaussianBlur stdDeviation="50"/>
<feColorMatrix type="matrix" values="0 0 0 0 0.0509804 0 0 0 0 0.176471 0 0 0 0 0.266667 0 0 0 0.15 0"/>
<feBlend mode="normal" in2="effect6_dropShadow_512_10466" result="effect7_dropShadow_512_10466"/>
<feBlend mode="normal" in="SourceGraphic" in2="effect7_dropShadow_512_10466" result="shape"/>
</filter>
</defs>
</svg>
