<svg width="100" height="84" viewBox="0 0 100 84" fill="none" xmlns="http://www.w3.org/2000/svg">
<g opacity="0.35" clip-path="url(#clip0_705_11536)">
<path fill-rule="evenodd" clip-rule="evenodd" d="M43.5874 55.8893C43.5874 55.8893 45.2117 62.0478 48.2008 64.4207C28.6613 83.6714 -3.25601 58.4341 14.9159 34.4058C14.9159 34.4058 22.9444 23.5412 37.7641 27.1429C37.7641 27.1429 52.2303 30.2135 54.4739 46.5092C52.8625 63.3396 72.8576 67.5328 80.029 54.7534C80.029 54.7534 85.8447 43.029 73.6228 36.7705C73.6228 36.7705 63.9397 31.6928 56.5003 41.7892C56.5003 41.7892 56.1237 37.8408 51.9317 33.2945C66.3203 17.5775 95.0792 30.7123 89.7199 54.2694C86.1666 70.1868 65.7895 76.759 52.7178 65.4725C52.7178 65.4725 46.4555 60.2253 45.6053 51.5106C47.861 34.8392 25.155 28.7772 19.2663 44.6551C14.9255 58.6635 33.5706 69.7921 43.5874 55.8893Z" fill="black"/>
<path d="M31.9808 55.7532C35.6167 55.7532 38.5642 52.6867 38.5642 48.9041C38.5642 45.1214 35.6167 42.055 31.9808 42.055C28.3449 42.055 25.3975 45.1214 25.3975 48.9041C25.3975 52.6867 28.3449 55.7532 31.9808 55.7532Z" fill="black"/>
<path d="M67.9681 55.7531C71.604 55.7531 74.5515 52.6867 74.5515 48.904C74.5515 45.1214 71.604 42.0549 67.9681 42.0549C64.3322 42.0549 61.3848 45.1214 61.3848 48.904C61.3848 52.6867 64.3322 55.7531 67.9681 55.7531Z" fill="black"/>
<path fill-rule="evenodd" clip-rule="evenodd" d="M41.3418 72.4902C44.5212 71.1675 47.4794 69.4465 49.9502 66.9283C52.545 69.426 55.5347 70.9748 58.6649 72.561C50.5199 87.9668 49.0825 87.2513 41.3418 72.4902Z" fill="black"/>
<path fill-rule="evenodd" clip-rule="evenodd" d="M3.45606 27.3224L1.18881 26.3836C1.18881 26.3836 -1.45034 24.2934 1.13584 22.2742L49.3878 0.168432C49.3878 0.168432 50.0607 -0.185743 50.8755 0.133083C51.6904 0.451909 97.9412 21.8492 97.9412 21.8492C97.9412 21.8492 101.13 23.1599 99.5708 25.7815L88.9079 30.883C88.9079 30.883 87.1719 32.0166 85.1527 29.7848C76.6959 21.6114 60.3858 20.9765 52.5258 28.3678C52.5258 28.3678 49.8879 30.9889 47.7667 28.5712C47.7667 28.5712 33.925 16.8725 17.3458 27.7837C15.1974 28.7576 13.2601 32.5741 10.7214 30.5825L6.29317 28.5986L6.25726 70.0468C6.25726 70.0468 11.1459 71.7814 9.1974 76.5639C5.00867 84.145 -5.10837 74.8263 3.35236 70.0634L3.45606 27.3224Z" fill="black"/>
</g>
<defs>
<clipPath id="clip0_705_11536">
<rect width="100" height="83.8402" fill="white"/>
</clipPath>
</defs>
</svg>
