<svg width="166" height="47" viewBox="0 0 166 47" fill="none" xmlns="http://www.w3.org/2000/svg">
<path fill-rule="evenodd" clip-rule="evenodd" d="M23.9417 31.4264C23.9417 31.4264 24.8338 34.8092 26.4757 36.1125C15.743 46.6867 -1.78869 32.8242 8.19282 19.6258C8.19282 19.6258 12.6028 13.6581 20.743 15.6364C20.743 15.6364 28.6891 17.323 29.9214 26.274C29.0363 35.5187 40.0193 37.822 43.9584 30.8025C43.9584 30.8025 47.1529 24.3624 40.4396 20.9247C40.4396 20.9247 35.1208 18.1356 31.0345 23.6814C31.0345 23.6814 30.8276 21.5126 28.525 19.0154C36.4285 10.3823 52.2253 17.597 49.2815 30.5366C47.3297 39.2798 36.1369 42.8898 28.9568 36.6903C28.9568 36.6903 25.5171 33.8081 25.0501 29.0212C26.2891 19.8639 13.817 16.5341 10.5825 25.2556C8.19812 32.9502 18.4396 39.063 23.9417 31.4264Z" fill="white"/>
<path d="M17.5664 31.3516C19.5635 31.3516 21.1825 29.6672 21.1825 27.5895C21.1825 25.5117 19.5635 23.8274 17.5664 23.8274C15.5693 23.8274 13.9503 25.5117 13.9503 27.5895C13.9503 29.6672 15.5693 31.3516 17.5664 31.3516Z" fill="white"/>
<path d="M37.3331 31.3516C39.3302 31.3516 40.9492 29.6672 40.9492 27.5895C40.9492 25.5117 39.3302 23.8274 37.3331 23.8274C35.336 23.8274 33.717 25.5117 33.717 27.5895C33.717 29.6672 35.336 31.3516 37.3331 31.3516Z" fill="white"/>
<path fill-rule="evenodd" clip-rule="evenodd" d="M22.7088 40.5451C24.4552 39.8185 26.0801 38.8732 27.4373 37.49C28.8626 38.8619 30.5047 39.7126 32.2241 40.5839C27.7502 49.0461 26.9607 48.6531 22.7088 40.5451Z" fill="white"/>
<path fill-rule="evenodd" clip-rule="evenodd" d="M1.89836 15.7351L0.652995 15.2194C0.652995 15.2194 -0.79665 14.0713 0.6239 12.9621L27.1279 0.819812C27.1279 0.819812 27.4975 0.625269 27.9451 0.800395C28.3927 0.975521 53.7975 12.7287 53.7975 12.7287C53.7975 12.7287 55.5489 13.4487 54.6926 14.8887L48.8357 17.6909C48.8357 17.6909 47.8821 18.3135 46.773 17.0876C42.1278 12.5981 33.1689 12.2494 28.8516 16.3093C28.8516 16.3093 27.4026 17.749 26.2375 16.421C26.2375 16.421 18.6345 9.9951 9.52778 15.9884C8.3477 16.5234 7.28356 18.6197 5.88909 17.5258L3.45674 16.4361L3.43701 39.2029C3.43701 39.2029 6.12228 40.1557 5.05198 42.7827C2.75118 46.9468 -2.80595 41.8282 1.8414 39.212L1.89836 15.7351Z" fill="white"/>
<path d="M67.3765 12.2196V13.2118H64.0905V12.2196H67.3765ZM64.506 7.03829V13.2118H63.234V7.03829H64.506ZM66.9483 9.55264V10.5194H64.0905V9.55264H66.9483ZM67.3723 7.03829V8.0347H64.0905V7.03829H67.3723Z" fill="white"/>
<path d="M69.1658 7.03829L70.3276 9.19224L71.4894 7.03829H72.9437L71.1502 10.0996L72.9904 13.2118H71.5233L70.3276 11.0155L69.1319 13.2118H67.6564L69.5008 10.0996L67.703 7.03829H69.1658Z" fill="white"/>
<path d="M76.0347 11.0112H74.4617V10.019H76.0347C76.2778 10.019 76.4757 9.97947 76.6283 9.90032C76.781 9.81835 76.8926 9.70528 76.9633 9.56112C77.034 9.41696 77.0693 9.25442 77.0693 9.07351C77.0693 8.88978 77.034 8.71876 76.9633 8.56047C76.8926 8.40217 76.781 8.27497 76.6283 8.17886C76.4757 8.08276 76.2778 8.0347 76.0347 8.0347H74.9026V13.2118H73.6306V7.03829H76.0347C76.5181 7.03829 76.9322 7.12592 77.2771 7.30117C77.6247 7.4736 77.8904 7.71246 78.0742 8.01774C78.2579 8.32303 78.3498 8.67212 78.3498 9.06503C78.3498 9.4636 78.2579 9.80846 78.0742 10.0996C77.8904 10.3908 77.6247 10.6155 77.2771 10.7738C76.9322 10.9321 76.5181 11.0112 76.0347 11.0112Z" fill="white"/>
<path d="M83.1962 12.2196V13.2118H80.0882V12.2196H83.1962ZM80.4995 7.03829V13.2118H79.2275V7.03829H80.4995Z" fill="white"/>
<path d="M88.7167 9.98088V10.2734C88.7167 10.7427 88.6531 11.1639 88.5259 11.537C88.3987 11.9101 88.2192 12.2281 87.9874 12.491C87.7556 12.751 87.4786 12.9503 87.1564 13.0888C86.8369 13.2273 86.4822 13.2966 86.0921 13.2966C85.7048 13.2966 85.3501 13.2273 85.0279 13.0888C84.7084 12.9503 84.4314 12.751 84.1968 12.491C83.9622 12.2281 83.7799 11.9101 83.6498 11.537C83.5226 11.1639 83.459 10.7427 83.459 10.2734V9.98088C83.459 9.50883 83.5226 9.08765 83.6498 8.71735C83.777 8.34423 83.9565 8.02622 84.1883 7.76334C84.4229 7.50046 84.7 7.29976 85.0194 7.16125C85.3416 7.02275 85.6964 6.95349 86.0836 6.95349C86.4737 6.95349 86.8285 7.02275 87.1479 7.16125C87.4701 7.29976 87.7471 7.50046 87.9789 7.76334C88.2135 8.02622 88.3944 8.34423 88.5217 8.71735C88.6517 9.08765 88.7167 9.50883 88.7167 9.98088ZM87.432 10.2734V9.9724C87.432 9.64451 87.4023 9.35618 87.3429 9.10743C87.2836 8.85868 87.1959 8.64951 87.08 8.47991C86.9641 8.31031 86.8228 8.1831 86.656 8.0983C86.4893 8.01068 86.2985 7.96686 86.0836 7.96686C85.8688 7.96686 85.678 8.01068 85.5112 8.0983C85.3473 8.1831 85.2073 8.31031 85.0915 8.47991C84.9784 8.64951 84.8922 8.85868 84.8328 9.10743C84.7735 9.35618 84.7438 9.64451 84.7438 9.9724V10.2734C84.7438 10.5985 84.7735 10.8868 84.8328 11.1384C84.8922 11.3872 84.9798 11.5978 85.0957 11.7702C85.2116 11.9398 85.3529 12.0684 85.5197 12.156C85.6865 12.2437 85.8773 12.2875 86.0921 12.2875C86.3069 12.2875 86.4977 12.2437 86.6645 12.156C86.8313 12.0684 86.9712 11.9398 87.0843 11.7702C87.1973 11.5978 87.2836 11.3872 87.3429 11.1384C87.4023 10.8868 87.432 10.5985 87.432 10.2734Z" fill="white"/>
<path d="M89.6325 7.03829H91.9349C92.4069 7.03829 92.8126 7.10896 93.1518 7.25029C93.4938 7.39163 93.7567 7.6008 93.9404 7.87782C94.1242 8.15484 94.216 8.49545 94.216 8.89967C94.216 9.2304 94.1595 9.51448 94.0464 9.75192C93.9362 9.98654 93.7793 10.183 93.5758 10.3413C93.3751 10.4968 93.1391 10.6211 92.8677 10.7144L92.4649 10.9264H90.4636L90.4551 9.93424H91.9434C92.1667 9.93424 92.3518 9.89467 92.4988 9.81552C92.6458 9.73637 92.756 9.62613 92.8295 9.4848C92.9059 9.34346 92.944 9.17952 92.944 8.99295C92.944 8.79508 92.9073 8.62407 92.8338 8.47991C92.7603 8.33575 92.6486 8.2255 92.4988 8.14918C92.349 8.07286 92.161 8.0347 91.9349 8.0347H90.9046V13.2118H89.6325V7.03829ZM93.0839 13.2118L91.6762 10.46L93.0203 10.4515L94.445 13.1524V13.2118H93.0839Z" fill="white"/>
<path d="M99.338 12.2196V13.2118H96.052V12.2196H99.338ZM96.4675 7.03829V13.2118H95.1955V7.03829H96.4675ZM98.9098 9.55264V10.5194H96.052V9.55264H98.9098ZM99.3338 7.03829V8.0347H96.052V7.03829H99.3338Z" fill="white"/>
<path d="M100.063 12.6224C100.063 12.4415 100.125 12.2903 100.25 12.1687C100.377 12.0472 100.545 11.9864 100.754 11.9864C100.963 11.9864 101.13 12.0472 101.255 12.1687C101.382 12.2903 101.445 12.4415 101.445 12.6224C101.445 12.8033 101.382 12.9546 101.255 13.0761C101.13 13.1977 100.963 13.2584 100.754 13.2584C100.545 13.2584 100.377 13.1977 100.25 13.0761C100.125 12.9546 100.063 12.8033 100.063 12.6224Z" fill="white"/>
<path d="M108.728 7.96716L107.032 13.1344H105.667L107.983 6.90118H108.852L108.728 7.96716ZM110.136 13.1344L108.436 7.96716L108.299 6.90118H109.177L111.506 13.1344H110.136ZM110.059 10.814V11.8201H106.767V10.814H110.059Z" fill="white"/>
<path d="M115.62 11.0666H116.9C116.874 11.4862 116.759 11.8586 116.553 12.184C116.351 12.5093 116.067 12.7633 115.701 12.946C115.339 13.1286 114.902 13.22 114.391 13.22C113.992 13.22 113.634 13.1515 113.317 13.0145C113 12.8746 112.729 12.6749 112.503 12.4151C112.281 12.1554 112.111 11.8415 111.994 11.4733C111.877 11.1052 111.818 10.6927 111.818 10.2361V9.80372C111.818 9.34707 111.878 8.93467 111.998 8.5665C112.121 8.19548 112.295 7.88011 112.521 7.62039C112.749 7.36068 113.021 7.1609 113.338 7.02105C113.655 6.8812 114.009 6.81128 114.4 6.81128C114.919 6.81128 115.357 6.90546 115.714 7.09383C116.074 7.28219 116.352 7.54191 116.549 7.87297C116.749 8.20404 116.869 8.58077 116.909 9.00317H115.624C115.61 8.75201 115.56 8.53939 115.474 8.36529C115.389 8.18834 115.259 8.05563 115.085 7.96716C114.914 7.87583 114.685 7.83016 114.4 7.83016C114.186 7.83016 113.999 7.87012 113.839 7.95003C113.679 8.02995 113.545 8.15124 113.437 8.31392C113.328 8.4766 113.247 8.68209 113.193 8.93039C113.141 9.17583 113.116 9.46409 113.116 9.79516V10.2361C113.116 10.5586 113.14 10.8426 113.188 11.088C113.237 11.3306 113.311 11.5361 113.411 11.7045C113.514 11.87 113.645 11.9956 113.805 12.0812C113.967 12.164 114.163 12.2054 114.391 12.2054C114.66 12.2054 114.881 12.1626 115.055 12.0769C115.229 11.9913 115.362 11.8643 115.453 11.6959C115.547 11.5275 115.603 11.3178 115.62 11.0666Z" fill="white"/>
<path d="M121.9 9.43983V10.4416H118.647V9.43983H121.9ZM119.028 6.90118V13.1344H117.743V6.90118H119.028ZM122.816 6.90118V13.1344H121.536V6.90118H122.816Z" fill="white"/>
<path d="M125.299 6.90118V13.1344H124.019V6.90118H125.299Z" fill="white"/>
<path d="M130.685 12.1326V13.1344H127.367V12.1326H130.685ZM127.787 6.90118V13.1344H126.502V6.90118H127.787ZM130.253 9.43983V10.4159H127.367V9.43983H130.253ZM130.681 6.90118V7.90722H127.367V6.90118H130.681Z" fill="white"/>
<path d="M133.682 11.8329L135.15 6.90118H136.58L134.409 13.1344H133.468L133.682 11.8329ZM132.329 6.90118L133.793 11.8329L134.016 13.1344H133.065L130.908 6.90118H132.329Z" fill="white"/>
<path d="M141.345 12.1326V13.1344H138.027V12.1326H141.345ZM138.446 6.90118V13.1344H137.162V6.90118H138.446ZM140.912 9.43983V10.4159H138.027V9.43983H140.912ZM141.34 6.90118V7.90722H138.027V6.90118H141.34Z" fill="white"/>
<path d="M142.077 12.5393C142.077 12.3566 142.14 12.2039 142.265 12.0812C142.394 11.9585 142.563 11.8971 142.775 11.8971C142.986 11.8971 143.154 11.9585 143.28 12.0812C143.408 12.2039 143.472 12.3566 143.472 12.5393C143.472 12.722 143.408 12.8746 143.28 12.9974C143.154 13.1201 142.986 13.1814 142.775 13.1814C142.563 13.1814 142.394 13.1201 142.265 12.9974C142.14 12.8746 142.077 12.722 142.077 12.5393Z" fill="white"/>
<path fill-rule="evenodd" clip-rule="evenodd" d="M73.1135 17.8895C79.1102 17.8895 83.9715 22.7334 83.9715 28.7086C83.9715 34.6837 79.1102 39.5276 73.1135 39.5276C67.117 39.5276 62.2556 34.6837 62.2556 28.7086C62.2556 22.7334 67.117 17.8895 73.1135 17.8895ZM73.1974 23.338C75.5914 23.338 77.5321 25.7316 77.5321 28.6843C77.5321 31.637 75.5914 34.0305 73.1974 34.0305C70.8035 34.0305 68.8628 31.637 68.8628 28.6843C68.8628 25.7316 70.8035 23.338 73.1974 23.338Z" fill="white"/>
<path fill-rule="evenodd" clip-rule="evenodd" d="M100.942 39.5666L95.571 39.5277L95.5898 17.8507H100.902L100.942 39.5666Z" fill="white"/>
<path fill-rule="evenodd" clip-rule="evenodd" d="M91.7963 39.5666L86.4257 39.5277L86.4446 17.8507H91.7568L91.7963 39.5666Z" fill="white"/>
<path fill-rule="evenodd" clip-rule="evenodd" d="M120.303 21.1395C120.303 21.1395 116.917 15.769 109.757 18.7267C109.757 18.7267 103.004 22.5213 104.795 31.589C104.795 31.589 105.261 36.3758 110.243 38.9054C110.243 38.9054 116.216 41.552 120.303 36.3564L120.302 39.2751H126.724L126.743 18.1818L120.302 18.2014L120.303 21.1395ZM115.614 23.4452C118.226 23.4452 120.343 25.8018 120.343 28.7087C120.343 31.6156 118.226 33.9722 115.614 33.9722C113.003 33.9722 110.886 31.6156 110.886 28.7087C110.886 25.8018 113.003 23.4452 115.614 23.4452Z" fill="white"/>
<path fill-rule="evenodd" clip-rule="evenodd" d="M129.963 17.8514L136.618 17.8612L136.628 22.0546L140.997 22.0645L141.031 27.6491L136.619 27.6663L136.639 32.619C136.639 32.619 136.688 33.9033 138.371 33.9325H141.046L141.018 39.5074C141.018 39.5074 136.133 39.8381 133.779 38.9236C133.779 38.9236 129.654 37.4836 129.946 31.7239L129.963 17.8514Z" fill="white"/>
<path fill-rule="evenodd" clip-rule="evenodd" d="M154.6 17.8895C160.597 17.8895 165.458 22.7334 165.458 28.7086C165.458 34.6837 160.597 39.5276 154.6 39.5276C148.604 39.5276 143.743 34.6837 143.743 28.7086C143.743 22.7334 148.604 17.8895 154.6 17.8895ZM154.684 23.338C157.078 23.338 159.019 25.7316 159.019 28.6843C159.019 31.637 157.078 34.0305 154.684 34.0305C152.29 34.0305 150.35 31.637 150.35 28.6843C150.35 25.7316 152.29 23.338 154.684 23.338Z" fill="white"/>
</svg>
