<svg width="32" height="32" viewBox="0 0 32 32" fill="none" xmlns="http://www.w3.org/2000/svg">
<path d="M2.9905 9.13865L15.3198 1.74665C15.5271 1.62232 15.7642 1.55664 16.0058 1.55664C16.2475 1.55664 16.4846 1.62232 16.6918 1.74665L29.0092 9.13999C29.108 9.19921 29.1898 9.28303 29.2466 9.38327C29.3034 9.48352 29.3332 9.59677 29.3332 9.71199V26.6667C29.3332 27.0203 29.1927 27.3594 28.9426 27.6095C28.6926 27.8595 28.3535 28 27.9998 28H3.99984C3.64622 28 3.30708 27.8595 3.05703 27.6095C2.80698 27.3594 2.6665 27.0203 2.6665 26.6667V9.71065C2.66648 9.59544 2.69631 9.48219 2.7531 9.38194C2.80988 9.28169 2.89168 9.19787 2.9905 9.13865ZM5.33317 10.844V25.3333H26.6665V10.8427L16.0052 4.44265L5.33317 10.8427V10.844ZM16.0798 18.264L23.1412 12.3133L24.8585 14.3533L16.0985 21.736L7.15184 14.3627L8.84784 12.304L16.0798 18.264Z" fill="#2170AC"/>
</svg>
