<svg width="30" height="32" viewBox="0 0 30 32" fill="none" xmlns="http://www.w3.org/2000/svg">
<path d="M28.0019 14.5103C27.2659 14.5103 26.6679 13.9123 26.6679 13.1763C26.6679 9.43626 25.2119 5.92026 22.5679 3.27626C22.0479 2.75626 22.0479 1.91226 22.5679 1.39026C23.0879 0.868262 23.9319 0.870262 24.4539 1.39026C27.6019 4.53826 29.3359 8.72426 29.3359 13.1763C29.3339 13.9123 28.7379 14.5103 28.0019 14.5103Z" fill="#0D2D44"/>
<path d="M1.334 14.51C0.598 14.51 0 13.912 0 13.176C0 8.724 1.734 4.538 4.882 1.39C5.402 0.87 6.246 0.87 6.768 1.39C7.29 1.91 7.288 2.754 6.768 3.276C4.124 5.92 2.668 9.436 2.668 13.176C2.668 13.912 2.07 14.51 1.334 14.51Z" fill="#0D2D44"/>
<path d="M27.174 22.55C25.158 20.846 24.002 18.354 24.002 15.716V12C24.002 7.308 20.516 3.424 16.002 2.774V1.334C16.002 0.596 15.404 0 14.668 0C13.932 0 13.334 0.596 13.334 1.334V2.774C8.81798 3.424 5.33398 7.308 5.33398 12V15.718C5.33398 18.356 4.17798 20.846 2.14998 22.562C1.63198 23.006 1.33398 23.652 1.33398 24.334C1.33398 25.62 2.37998 26.668 3.66798 26.668H25.668C26.954 26.668 28.002 25.622 28.002 24.334C28.002 23.652 27.704 23.006 27.174 22.55Z" fill="#2170AC"/>
<path d="M14.6679 32C17.0819 32 19.1019 30.28 19.5659 28H9.76794C10.2339 30.28 12.2539 32 14.6679 32Z" fill="#0D2D44"/>
</svg>
