<svg width="100" height="84" viewBox="0 0 100 84" fill="none" xmlns="http://www.w3.org/2000/svg">
<g opacity="0.35" clip-path="url(#clip0_1202_23109)">
<path fill-rule="evenodd" clip-rule="evenodd" d="M43.5874 55.8893C43.5874 55.8893 45.2116 62.0478 48.2008 64.4206C28.6612 83.6714 -3.25607 58.4341 14.9158 34.4058C14.9158 34.4058 22.9444 23.5412 37.764 27.1429C37.764 27.1429 52.2303 30.2134 54.4738 46.5091C52.8624 63.3396 72.8576 67.5328 80.029 54.7534C80.029 54.7534 85.8446 43.029 73.6227 36.7705C73.6227 36.7705 63.9396 31.6928 56.5002 41.7892C56.5002 41.7892 56.1236 37.8408 51.9316 33.2945C66.3202 17.5774 95.0791 30.7123 89.7198 54.2694C86.1666 70.1868 65.7894 76.759 52.7178 65.4725C52.7178 65.4725 46.4555 60.2253 45.6053 51.5106C47.861 34.8392 25.1549 28.7772 19.2662 44.6551C14.9254 58.6635 33.5706 69.7921 43.5874 55.8893Z" fill="#0D2D44"/>
<path d="M31.9808 55.7534C35.6167 55.7534 38.5642 52.6869 38.5642 48.9043C38.5642 45.1216 35.6167 42.0552 31.9808 42.0552C28.3449 42.0552 25.3975 45.1216 25.3975 48.9043C25.3975 52.6869 28.3449 55.7534 31.9808 55.7534Z" fill="#0D2D44"/>
<path d="M67.9681 55.7529C71.604 55.7529 74.5515 52.6864 74.5515 48.9038C74.5515 45.1211 71.604 42.0547 67.9681 42.0547C64.3322 42.0547 61.3848 45.1211 61.3848 48.9038C61.3848 52.6864 64.3322 55.7529 67.9681 55.7529Z" fill="#0D2D44"/>
<path fill-rule="evenodd" clip-rule="evenodd" d="M41.3418 72.4901C44.5212 71.1673 47.4794 69.4464 49.9502 66.9282C52.545 69.4259 55.5347 70.9747 58.6649 72.5609C50.5199 87.9667 49.0825 87.2512 41.3418 72.4901Z" fill="#0D2D44"/>
<path fill-rule="evenodd" clip-rule="evenodd" d="M3.45606 27.3224L1.18881 26.3836C1.18881 26.3836 -1.45034 24.2934 1.13584 22.2742L49.3878 0.168432C49.3878 0.168432 50.0607 -0.185743 50.8755 0.133083C51.6904 0.451909 97.9412 21.8492 97.9412 21.8492C97.9412 21.8492 101.13 23.1599 99.5708 25.7815L88.9079 30.883C88.9079 30.883 87.1719 32.0166 85.1527 29.7848C76.6959 21.6114 60.3858 20.9765 52.5258 28.3678C52.5258 28.3678 49.8879 30.9889 47.7667 28.5712C47.7667 28.5712 33.925 16.8725 17.3458 27.7837C15.1974 28.7576 13.2601 32.5741 10.7214 30.5825L6.29317 28.5986L6.25726 70.0468C6.25726 70.0468 11.1459 71.7814 9.1974 76.5639C5.00867 84.145 -5.10837 74.8263 3.35236 70.0634L3.45606 27.3224Z" fill="#0D2D44"/>
</g>
<defs>
<clipPath id="clip0_1202_23109">
<rect width="100" height="83.8402" fill="white"/>
</clipPath>
</defs>
</svg>
