<svg width="16" height="20" viewBox="0 0 16 20" fill="none" xmlns="http://www.w3.org/2000/svg">
<path d="M8 8V14V8ZM8 14L5 11L8 14ZM8 14L11 11L8 14ZM13 19H3C2.46957 19 1.96086 18.7893 1.58579 18.4142C1.21071 18.0391 1 17.5304 1 17V3C1 2.46957 1.21071 1.96086 1.58579 1.58579C1.96086 1.21071 2.46957 1 3 1H8.586C8.8512 1.00006 9.10551 1.10545 9.293 1.293L14.707 6.707C14.8946 6.89449 14.9999 7.1488 15 7.414V17C15 17.5304 14.7893 18.0391 14.4142 18.4142C14.0391 18.7893 13.5304 19 13 19Z" stroke="#2170AC" stroke-width="2" stroke-linecap="round" stroke-linejoin="round"/>
</svg>
