<svg width="40" height="40" viewBox="0 0 40 40" fill="none" xmlns="http://www.w3.org/2000/svg">
<path d="M9.09166 24.9997L1.66666 30.833V4.99967C1.66666 4.55765 1.84225 4.13372 2.15481 3.82116C2.46737 3.5086 2.8913 3.33301 3.33332 3.33301H28.3333C28.7754 3.33301 29.1993 3.5086 29.5118 3.82116C29.8244 4.13372 30 4.55765 30 4.99967V24.9997H9.09166ZM7.93832 21.6663H26.6667V6.66634H4.99999V23.9747L7.93832 21.6663ZM13.3333 28.333H30.395L33.3333 30.6413V13.333H35C35.442 13.333 35.8659 13.5086 36.1785 13.8212C36.4911 14.1337 36.6667 14.5576 36.6667 14.9997V37.4997L29.2417 31.6663H15C14.558 31.6663 14.134 31.4907 13.8215 31.1782C13.5089 30.8656 13.3333 30.4417 13.3333 29.9997V28.333Z" fill="#2170AC"/>
</svg>
