<svg width="40" height="40" viewBox="0 0 40 40" fill="none" xmlns="http://www.w3.org/2000/svg">
<path d="M29.3636 9.94699L31.7853 7.52533L34.1419 9.88199L31.7203 12.3037C34.1132 15.2989 35.2685 19.0968 34.9487 22.9172C34.629 26.7376 32.8586 30.2906 30.0011 32.8465C27.1436 35.4024 23.4159 36.7671 19.5836 36.6605C15.7513 36.5538 12.1053 34.9838 9.39438 32.2729C6.68349 29.562 5.11348 25.916 5.00679 22.0837C4.90011 18.2514 6.26485 14.5237 8.82073 11.6662C11.3766 8.80866 14.9296 7.03825 18.75 6.71852C22.5705 6.3988 26.3683 7.55404 29.3636 9.94699ZM20.0003 33.3337C21.5324 33.3337 23.0494 33.0319 24.4649 32.4456C25.8804 31.8593 27.1665 30.9999 28.2498 29.9166C29.3332 28.8332 30.1926 27.5471 30.7789 26.1316C31.3652 24.7162 31.6669 23.1991 31.6669 21.667C31.6669 20.1349 31.3652 18.6178 30.7789 17.2024C30.1926 15.7869 29.3332 14.5008 28.2498 13.4174C27.1665 12.3341 25.8804 11.4747 24.4649 10.8884C23.0494 10.3021 21.5324 10.0003 20.0003 10.0003C16.9061 10.0003 13.9386 11.2295 11.7507 13.4174C9.56276 15.6053 8.33359 18.5728 8.33359 21.667C8.33359 24.7612 9.56276 27.7286 11.7507 29.9166C13.9386 32.1045 16.9061 33.3337 20.0003 33.3337ZM18.3336 13.3337H21.6669V23.3337H18.3336V13.3337ZM13.3336 1.66699H26.6669V5.00033H13.3336V1.66699Z" fill="#F31D5C"/>
</svg>
