<svg width="16" height="16" viewBox="0 0 16 16" fill="none" xmlns="http://www.w3.org/2000/svg">
<path d="M5.33301 13.3335V14.6215C5.33311 14.6849 5.31513 14.747 5.28119 14.8005C5.24724 14.854 5.19873 14.8968 5.14134 14.9237C5.08396 14.9507 5.02008 14.9607 4.9572 14.9526C4.89432 14.9445 4.83505 14.9187 4.78634 14.8781L2.03967 12.5895C1.98699 12.5455 1.94915 12.4864 1.9313 12.4202C1.91345 12.354 1.91648 12.2838 1.93995 12.2194C1.96343 12.1549 2.00622 12.0993 2.06248 12.06C2.11875 12.0208 2.18575 11.9999 2.25434 12.0001H11.9997C12.3533 12.0001 12.6924 11.8597 12.9425 11.6096C13.1925 11.3596 13.333 11.0204 13.333 10.6668V6.00013C13.333 5.63194 13.6315 5.33346 13.9997 5.33346C14.3679 5.33346 14.6663 5.63194 14.6663 6.00013V10.6668C14.6663 11.374 14.3854 12.0523 13.8853 12.5524C13.3852 13.0525 12.7069 13.3335 11.9997 13.3335H5.33301ZM10.6663 2.6668V1.3788C10.6662 1.3154 10.6842 1.25329 10.7182 1.19975C10.7521 1.14622 10.8006 1.10347 10.858 1.07652C10.9154 1.04958 10.9793 1.03956 11.0421 1.04764C11.105 1.05572 11.1643 1.08156 11.213 1.12213L13.9597 3.4108C14.0123 3.45469 14.0501 3.51374 14.068 3.57991C14.0859 3.64608 14.0829 3.71615 14.0595 3.78057C14.0361 3.84499 13.9934 3.90064 13.9373 3.93993C13.8811 3.97921 13.8142 4.00024 13.7457 4.00013H3.99967C3.64605 4.00013 3.30691 4.14061 3.05687 4.39065C2.80682 4.6407 2.66634 4.97984 2.66634 5.33346V10.0001C2.66634 10.3683 2.36786 10.6668 1.99967 10.6668C1.63148 10.6668 1.33301 10.3683 1.33301 10.0001V5.33346C1.33301 4.62622 1.61396 3.94794 2.11406 3.44785C2.61415 2.94775 3.29243 2.6668 3.99967 2.6668H10.6663Z" fill="#27B98D"/>
</svg>
