<svg width="24" height="24" viewBox="0 0 24 24" fill="none" xmlns="http://www.w3.org/2000/svg">
<path d="M11 2C15.968 2 20 6.032 20 11C20 15.968 15.968 20 11 20C6.032 20 2 15.968 2 11C2 6.032 6.032 2 11 2ZM11 18C14.867 18 18 14.867 18 11C18 7.132 14.867 4 11 4C7.132 4 4 7.132 4 11C4 14.867 7.132 18 11 18Z" fill="#2170AC"/>
<path d="M21.6065 21.6068C21.9972 21.2161 21.9972 20.5826 21.6064 20.1919L20.1921 18.7782C19.8016 18.3877 19.1685 18.3878 18.778 18.7783C18.3875 19.1688 18.3874 19.8019 18.7779 20.1924L20.1916 21.6067C20.5823 21.9975 21.2158 21.9975 21.6065 21.6068Z" fill="#2170AC"/>
</svg>
