<svg width="48" height="48" viewBox="0 0 48 48" fill="none" xmlns="http://www.w3.org/2000/svg">
<path d="M24.0001 11.6699L23.5306 11.8124L4.78058 18.0944L0.517578 19.4999L3.00008 20.2949V33.4199C2.10458 33.9404 1.50008 34.8899 1.50008 35.9999C1.50008 36.7956 1.81615 37.5586 2.37876 38.1212C2.94137 38.6838 3.70443 38.9999 4.50008 38.9999C5.29573 38.9999 6.05879 38.6838 6.6214 38.1212C7.18401 37.5586 7.50008 36.7956 7.50008 35.9999C7.50008 34.8899 6.89558 33.9404 6.00008 33.4199V21.3299L9.00008 22.3124V29.9999C9.00008 31.2299 9.75008 32.2499 10.6411 32.9549C11.5321 33.6554 12.6391 34.1504 13.9681 34.5944C16.6291 35.4794 20.1361 35.9999 24.0001 35.9999C27.8641 35.9999 31.3711 35.4809 34.0321 34.5929C35.3611 34.1504 36.4681 33.6554 37.3591 32.9534C38.2501 32.2499 39.0001 31.2299 39.0001 29.9999V22.3124L43.2196 20.9054L47.4826 19.4999L43.2181 18.0929L24.4681 11.8124L24.0001 11.6699ZM24.0001 14.8124L38.0626 19.4999L24.0001 24.1874L9.93758 19.4999L24.0001 14.8124ZM12.0001 23.3444L23.5321 27.1874L24.0001 27.3284L24.4696 27.1859L36.0001 23.3429V29.9999C36.0001 30.0149 36.0061 30.1889 35.5306 30.5624C35.0566 30.9374 34.2061 31.4099 33.0931 31.7819C30.8701 32.5214 27.5926 32.9999 24.0001 32.9999C20.4076 32.9999 17.1301 32.5229 14.9056 31.7804C13.7956 31.4099 12.9436 30.9359 12.4696 30.5624C11.9926 30.1874 12.0001 30.0149 12.0001 29.9999V23.3429V23.3444Z" fill="#2170AC"/>
</svg>
