<svg width="48" height="48" viewBox="0 0 48 48" fill="none" xmlns="http://www.w3.org/2000/svg">
<path fill-rule="evenodd" clip-rule="evenodd" d="M24 45.1708C37.2548 45.1708 48 35.059 48 22.5854C48 10.1118 37.2548 0 24 0C10.7452 0 0 10.1118 0 22.5854C0 28.7919 2.6603 34.4138 6.96638 38.4961C7.84516 39.3292 8.4082 40.4602 8.4082 41.6711V43.9951C8.4082 46.9325 11.4686 48.868 14.1226 47.6091L18.819 45.3812C19.5496 45.0346 20.3671 44.9267 21.1709 45.0155C22.0987 45.1181 23.0428 45.1708 24 45.1708Z" fill="#0F7F5D"/>
<path fill-rule="evenodd" clip-rule="evenodd" d="M33.4052 16.2553C34.2866 16.9311 34.4549 18.1929 33.7813 19.076L23.7858 32.1815C23.4334 32.6436 22.8992 32.9307 22.3202 32.9692C21.7413 33.0078 21.1739 32.7939 20.7637 32.3826L14.4195 26.0217C13.6349 25.2351 13.6349 23.9618 14.4195 23.1752C15.207 22.3856 16.486 22.3856 17.2735 23.1752L21.9846 27.8986L30.5773 16.6324C31.2533 15.746 32.5206 15.5771 33.4052 16.2553Z" fill="white"/>
</svg>
