<svg width="40" height="40" viewBox="0 0 40 40" fill="none" xmlns="http://www.w3.org/2000/svg">
<path d="M29.3634 9.94699L31.785 7.52533L34.1417 9.88199L31.72 12.3037C34.113 15.2989 35.2682 19.0968 34.9485 22.9172C34.6288 26.7376 32.8583 30.2906 30.0008 32.8465C27.1433 35.4024 23.4156 36.7671 19.5833 36.6605C15.751 36.5538 12.105 34.9838 9.39414 32.2729C6.68324 29.562 5.11323 25.916 5.00655 22.0837C4.89986 18.2514 6.2646 14.5237 8.82048 11.6662C11.3764 8.80866 14.9294 7.03825 18.7498 6.71852C22.5702 6.3988 26.3681 7.55404 29.3634 9.94699ZM20 33.3337C21.5321 33.3337 23.0492 33.0319 24.4647 32.4456C25.8801 31.8593 27.1662 30.9999 28.2496 29.9166C29.3329 28.8332 30.1923 27.5471 30.7786 26.1316C31.3649 24.7162 31.6667 23.1991 31.6667 21.667C31.6667 20.1349 31.3649 18.6178 30.7786 17.2024C30.1923 15.7869 29.3329 14.5008 28.2496 13.4174C27.1662 12.3341 25.8801 11.4747 24.4647 10.8884C23.0492 10.3021 21.5321 10.0003 20 10.0003C16.9058 10.0003 13.9384 11.2295 11.7504 13.4174C9.56251 15.6053 8.33335 18.5728 8.33335 21.667C8.33335 24.7612 9.56251 27.7286 11.7504 29.9166C13.9384 32.1045 16.9058 33.3337 20 33.3337ZM18.3334 13.3337H21.6667V23.3337H18.3334V13.3337ZM13.3334 1.66699H26.6667V5.00033H13.3334V1.66699Z" fill="#2170AC"/>
</svg>
