<svg width="20" height="20" viewBox="0 0 20 20" fill="none" xmlns="http://www.w3.org/2000/svg">
<path d="M10 18C5.58737 18 2 14.4126 2 10C2 5.58737 5.58737 2 10 2C14.4126 2 18 5.58737 18 10C18 14.4126 14.4126 18 10 18ZM10 3.26316C6.28631 3.26316 3.26316 6.28632 3.26316 10C3.26316 13.7137 6.28631 16.7368 10 16.7368C13.7137 16.7368 16.7368 13.7137 16.7368 10C16.7368 6.28632 13.7137 3.26316 10 3.26316Z" fill="#2170AC"/>
<path d="M10.0001 10.4209C9.65485 10.4209 9.36853 10.1346 9.36853 9.78937V5.57884C9.36853 5.23358 9.65485 4.94727 10.0001 4.94727C10.3454 4.94727 10.6317 5.23358 10.6317 5.57884V9.78937C10.6317 10.1346 10.3454 10.4209 10.0001 10.4209Z" fill="#2170AC"/>
</svg>
