<svg width="24" height="24" viewBox="0 0 24 24" fill="none" xmlns="http://www.w3.org/2000/svg">
<path d="M6.89227 13C6.42512 13 6.01778 12.6622 6.003 12.1953C5.98407 11.5971 6.0547 10.9979 6.21388 10.4178C6.44464 9.57676 6.85597 8.79617 7.41921 8.13036C7.98245 7.46455 8.68406 6.92953 9.47518 6.56255C10.2663 6.19557 11.1279 6.00546 12 6.00546C12.8721 6.00546 13.7337 6.19557 14.5248 6.56255C15.3159 6.92953 16.0175 7.46455 16.5808 8.13036C17.144 8.79617 17.5554 9.57676 17.7861 10.4178C17.9453 10.9979 18.0159 11.5971 17.997 12.1953C17.9822 12.6622 17.5749 13 17.1077 13C16.4827 13 16.029 12.401 15.9936 11.777C15.9824 11.5815 15.957 11.3866 15.9171 11.1938C15.7935 10.5963 15.5349 10.035 15.161 9.55285C14.7872 9.07069 14.3079 8.68045 13.7601 8.41198C13.2122 8.14352 12.6101 8.00395 12 8.00395C11.3899 8.00395 10.7878 8.14352 10.2399 8.41198C9.69205 8.68045 9.21284 9.07069 8.83897 9.55285C8.4651 10.035 8.20648 10.5963 8.08291 11.1938C8.04303 11.3866 8.01755 11.5815 8.00644 11.777C7.97098 12.401 7.51728 13 6.89227 13ZM2 16C2 15.4477 2.44772 15 3 15H11C11.5523 15 12 15.4477 12 16C12 16.5523 11.5523 17 11 17H3C2.44772 17 2 16.5523 2 16ZM14 16C14 15.4477 14.4477 15 15 15H21C21.5523 15 22 15.4477 22 16C22 16.5523 21.5523 17 21 17H15C14.4477 17 14 16.5523 14 16ZM16 20C16 19.4477 16.4477 19 17 19H19C19.5523 19 20 19.4477 20 20C20 20.5523 19.5523 21 19 21H17C16.4477 21 16 20.5523 16 20ZM4 20C4 19.4477 4.44772 19 5 19H13C13.5523 19 14 19.4477 14 20C14 20.5523 13.5523 21 13 21H5C4.44772 21 4 20.5523 4 20ZM11 2C11 1.44772 11.4477 1 12 1C12.5523 1 13 1.44772 13 2V3C13 3.55228 12.5523 4 12 4C11.4477 4 11 3.55228 11 3V2ZM4.222 5.636C3.83153 5.24553 3.83153 4.61247 4.222 4.222C4.61247 3.83153 5.24553 3.83153 5.636 4.222L6.343 4.929C6.73347 5.31947 6.73347 5.95253 6.343 6.343C5.95253 6.73347 5.31947 6.73347 4.929 6.343L4.222 5.636ZM18.363 4.222C18.7535 3.83153 19.3865 3.83153 19.777 4.222C20.1675 4.61247 20.1675 5.24553 19.777 5.636L19.07 6.343C18.6795 6.73346 18.0465 6.73347 17.656 6.343C17.2655 5.95254 17.2655 5.31947 17.656 4.929L18.363 4.222ZM22 11C22.5523 11 23 11.4477 23 12C23 12.5523 22.5523 13 22 13H21C20.4477 13 20 12.5523 20 12C20 11.4477 20.4477 11 21 11H22ZM3 11C3.55228 11 4 11.4477 4 12C4 12.5523 3.55228 13 3 13H2C1.44772 13 1 12.5523 1 12C1 11.4477 1.44772 11 2 11H3Z" fill="#2170AC"/>
</svg>
