<svg width="24" height="24" viewBox="0 0 24 24" fill="none" xmlns="http://www.w3.org/2000/svg">
<path d="M12 18C10.4087 18 8.88258 17.3679 7.75736 16.2426C6.63214 15.1174 6 13.5913 6 12C6 10.4087 6.63214 8.88258 7.75736 7.75736C8.88258 6.63214 10.4087 6 12 6C13.5913 6 15.1174 6.63214 16.2426 7.75736C17.3679 8.88258 18 10.4087 18 12C18 13.5913 17.3679 15.1174 16.2426 16.2426C15.1174 17.3679 13.5913 18 12 18ZM12 16C13.0609 16 14.0783 15.5786 14.8284 14.8284C15.5786 14.0783 16 13.0609 16 12C16 10.9391 15.5786 9.92172 14.8284 9.17157C14.0783 8.42143 13.0609 8 12 8C10.9391 8 9.92172 8.42143 9.17157 9.17157C8.42143 9.92172 8 10.9391 8 12C8 13.0609 8.42143 14.0783 9.17157 14.8284C9.92172 15.5786 10.9391 16 12 16ZM11 2C11 1.44772 11.4477 1 12 1C12.5523 1 13 1.44772 13 2V3C13 3.55228 12.5523 4 12 4C11.4477 4 11 3.55228 11 3V2ZM11 21C11 20.4477 11.4477 20 12 20C12.5523 20 13 20.4477 13 21V22C13 22.5523 12.5523 23 12 23C11.4477 23 11 22.5523 11 22V21ZM4.222 5.636C3.83153 5.24553 3.83153 4.61247 4.222 4.222C4.61247 3.83153 5.24553 3.83153 5.636 4.222L6.343 4.929C6.73347 5.31947 6.73347 5.95253 6.343 6.343C5.95253 6.73347 5.31947 6.73347 4.929 6.343L4.222 5.636ZM17.657 19.071C17.2665 18.6805 17.2665 18.0475 17.657 17.657C18.0475 17.2665 18.6805 17.2665 19.071 17.657L19.778 18.364C20.1685 18.7545 20.1685 19.3875 19.778 19.778C19.3875 20.1685 18.7545 20.1685 18.364 19.778L17.657 19.071ZM4.929 17.657C5.31946 17.2665 5.95253 17.2665 6.343 17.657C6.73347 18.0475 6.73347 18.6805 6.343 19.071L5.636 19.778C5.24553 20.1685 4.61246 20.1685 4.222 19.778C3.83153 19.3875 3.83153 18.7545 4.222 18.364L4.929 17.657ZM22 11C22.5523 11 23 11.4477 23 12C23 12.5523 22.5523 13 22 13H21C20.4477 13 20 12.5523 20 12C20 11.4477 20.4477 11 21 11H22ZM3 11C3.55228 11 4 11.4477 4 12C4 12.5523 3.55228 13 3 13H2C1.44772 13 1 12.5523 1 12C1 11.4477 1.44772 11 2 11H3Z" fill="#2170AC"/>
<path d="M19.0712 6.34265L19.7782 5.63565C20.1687 5.24518 20.1687 4.61211 19.7782 4.22165C19.3877 3.83118 18.7547 3.83118 18.3642 4.22165L17.6572 4.92865C17.2667 5.31911 17.2667 5.95218 17.6572 6.34265C18.0477 6.73311 18.6807 6.73311 19.0712 6.34265Z" fill="#2170AC"/>
</svg>
