<svg width="24" height="24" viewBox="0 0 24 24" fill="none" xmlns="http://www.w3.org/2000/svg">
<path d="M18.3639 10.98C19.9259 12.541 19.9259 15.074 18.3639 16.636L12.7069 22.293C12.3169 22.683 11.6829 22.683 11.2929 22.293L5.63586 16.636C4.07386 15.074 4.07386 12.541 5.63586 10.979C7.19786 9.417 9.73086 9.417 11.2929 10.979L11.9989 11.686L12.7069 10.979C14.2689 9.417 16.8019 9.417 18.3639 10.979V10.98ZM11.9999 1C14.2099 1 15.9999 2.79 15.9999 5C15.9999 7.21 14.2099 9 11.9999 9C9.78986 9 7.99986 7.21 7.99986 5C7.99986 2.79 9.78986 1 11.9999 1Z" fill="white"/>
</svg>
