<svg width="228" height="66" viewBox="0 0 228 66" fill="none" xmlns="http://www.w3.org/2000/svg">
<path fill-rule="evenodd" clip-rule="evenodd" d="M32.9198 43.2111C32.9198 43.2111 34.1465 47.8624 36.4041 49.6545C21.6466 64.194 -2.45945 45.1331 11.2651 26.9853C11.2651 26.9853 17.3288 18.7797 28.5216 21.4999C28.5216 21.4999 39.4475 23.819 41.1419 36.1266C39.9249 48.8381 55.0266 52.0051 60.4429 42.3532C60.4429 42.3532 64.8352 33.4982 55.6044 28.7714C55.6044 28.7714 48.2911 24.9363 42.6724 32.5618C42.6724 32.5618 42.388 29.5797 39.2219 26.1461C50.0891 14.2755 71.8097 24.1958 67.762 41.9876C65.0784 54.0095 49.6882 58.9733 39.8156 50.449C39.8156 50.449 35.086 46.4859 34.4438 39.904C36.1475 27.3127 18.9984 22.7343 14.5509 34.7263C11.2724 45.3064 25.3544 53.7114 32.9198 43.2111Z" fill="white"/>
<path d="M24.1538 43.1085C26.8999 43.1085 29.126 40.7925 29.126 37.9356C29.126 35.0787 26.8999 32.7627 24.1538 32.7627C21.4078 32.7627 19.1816 35.0787 19.1816 37.9356C19.1816 40.7925 21.4078 43.1085 24.1538 43.1085Z" fill="white"/>
<path d="M51.333 43.1085C54.0791 43.1085 56.3052 40.7925 56.3052 37.9356C56.3052 35.0787 54.0791 32.7627 51.333 32.7627C48.587 32.7627 46.3608 35.0787 46.3608 37.9356C46.3608 40.7925 48.587 43.1085 51.333 43.1085Z" fill="white"/>
<path fill-rule="evenodd" clip-rule="evenodd" d="M31.2246 55.7495C33.6259 54.7505 35.8601 53.4507 37.7262 51.5488C39.686 53.4352 41.944 54.605 44.3082 55.803C38.1565 67.4385 37.0709 66.8981 31.2246 55.7495Z" fill="white"/>
<path fill-rule="evenodd" clip-rule="evenodd" d="M2.61024 21.6357L0.897868 20.9266C0.897868 20.9266 -1.09539 19.348 0.857862 17.8229L37.3009 1.12721C37.3009 1.12721 37.8091 0.859714 38.4245 1.10051C39.04 1.34131 73.9716 17.5019 73.9716 17.5019C73.9716 17.5019 76.3797 18.4919 75.2024 20.4719L67.1491 24.3249C67.1491 24.3249 65.8379 25.181 64.3129 23.4954C57.9258 17.3223 45.6073 16.8429 39.6709 22.4252C39.6709 22.4252 37.6786 24.4048 36.0766 22.5789C36.0766 22.5789 25.6224 13.7432 13.1007 21.984C11.4781 22.7197 10.0149 25.6021 8.0975 24.0979L4.75302 22.5996L4.72589 53.904C4.72589 53.904 8.41814 55.2141 6.94648 58.8261C3.78287 64.5518 -3.85818 57.5137 2.53192 53.9165L2.61024 21.6357Z" fill="white"/>
<path d="M92.6427 16.802V18.1662H88.1244V16.802H92.6427ZM88.6958 9.67764V18.1662H86.9468V9.67764H88.6958ZM92.0539 13.1349V14.4641H88.1244V13.1349H92.0539ZM92.6369 9.67764V11.0477H88.1244V9.67764H92.6369Z" fill="white"/>
<path d="M95.103 9.67764L96.7005 12.6393L98.2979 9.67764H100.298L97.8315 13.8869L100.362 18.1662H98.3445L96.7005 15.1462L95.0564 18.1662H93.0275L95.5636 13.8869L93.0917 9.67764H95.103Z" fill="white"/>
<path d="M104.548 15.1404H102.385V13.7762H104.548C104.882 13.7762 105.154 13.7218 105.364 13.6129C105.574 13.5002 105.727 13.3447 105.825 13.1465C105.922 12.9483 105.97 12.7248 105.97 12.4761C105.97 12.2234 105.922 11.9883 105.825 11.7706C105.727 11.553 105.574 11.3781 105.364 11.2459C105.154 11.1138 104.882 11.0477 104.548 11.0477H102.991V18.1662H101.242V9.67764H104.548C105.212 9.67764 105.782 9.79812 106.256 10.0391C106.734 10.2762 107.099 10.6046 107.352 11.0244C107.605 11.4441 107.731 11.9242 107.731 12.4644C107.731 13.0124 107.605 13.4866 107.352 13.8869C107.099 14.2873 106.734 14.5963 106.256 14.8139C105.782 15.0316 105.212 15.1404 104.548 15.1404Z" fill="white"/>
<path d="M114.395 16.802V18.1662H110.121V16.802H114.395ZM110.687 9.67764V18.1662H108.938V9.67764H110.687Z" fill="white"/>
<path d="M121.985 13.7237V14.126C121.985 14.7712 121.898 15.3503 121.723 15.8633C121.548 16.3764 121.301 16.8136 120.983 17.1751C120.664 17.5327 120.283 17.8067 119.84 17.9971C119.401 18.1876 118.913 18.2828 118.377 18.2828C117.844 18.2828 117.356 18.1876 116.913 17.9971C116.474 17.8067 116.093 17.5327 115.771 17.1751C115.448 16.8136 115.197 16.3764 115.019 15.8633C114.844 15.3503 114.756 14.7712 114.756 14.126V13.7237C114.756 13.0746 114.844 12.4955 115.019 11.9863C115.193 11.4733 115.44 11.036 115.759 10.6746C116.082 10.3131 116.462 10.0372 116.902 9.84671C117.345 9.65626 117.833 9.56104 118.365 9.56104C118.901 9.56104 119.389 9.65626 119.828 9.84671C120.271 10.0372 120.652 10.3131 120.971 10.6746C121.294 11.036 121.542 11.4733 121.717 11.9863C121.896 12.4955 121.985 13.0746 121.985 13.7237ZM120.219 14.126V13.712C120.219 13.2612 120.178 12.8647 120.097 12.5227C120.015 12.1807 119.894 11.8931 119.735 11.6599C119.576 11.4267 119.381 11.2518 119.152 11.1352C118.923 11.0147 118.66 10.9544 118.365 10.9544C118.07 10.9544 117.807 11.0147 117.578 11.1352C117.352 11.2518 117.16 11.4267 117.001 11.6599C116.845 11.8931 116.727 12.1807 116.645 12.5227C116.563 12.8647 116.523 13.2612 116.523 13.712V14.126C116.523 14.5729 116.563 14.9694 116.645 15.3153C116.727 15.6573 116.847 15.9469 117.007 16.184C117.166 16.4172 117.36 16.594 117.59 16.7145C117.819 16.835 118.081 16.8953 118.377 16.8953C118.672 16.8953 118.934 16.835 119.164 16.7145C119.393 16.594 119.585 16.4172 119.741 16.184C119.896 15.9469 120.015 15.6573 120.097 15.3153C120.178 14.9694 120.219 14.5729 120.219 14.126Z" fill="white"/>
<path d="M123.245 9.67764H126.41C127.06 9.67764 127.617 9.7748 128.084 9.96914C128.554 10.1635 128.915 10.4511 129.168 10.832C129.421 11.2129 129.547 11.6812 129.547 12.237C129.547 12.6918 129.469 13.0824 129.314 13.4089C129.162 13.7315 128.947 14.0016 128.667 14.2193C128.391 14.433 128.066 14.604 127.693 14.7323L127.139 15.0238H124.387L124.376 13.6596H126.422C126.729 13.6596 126.984 13.6052 127.186 13.4963C127.388 13.3875 127.54 13.2359 127.641 13.0416C127.746 12.8472 127.798 12.6218 127.798 12.3653C127.798 12.0932 127.747 11.8581 127.646 11.6599C127.545 11.4616 127.392 11.3101 127.186 11.2051C126.98 11.1002 126.721 11.0477 126.41 11.0477H124.994V18.1662H123.245V9.67764ZM127.99 18.1662L126.055 14.3825L127.903 14.3708L129.862 18.0846V18.1662H127.99Z" fill="white"/>
<path d="M136.59 16.802V18.1662H132.071V16.802H136.59ZM132.643 9.67764V18.1662H130.894V9.67764H132.643ZM136.001 13.1349V14.4641H132.071V13.1349H136.001ZM136.584 9.67764V11.0477H132.071V9.67764H136.584Z" fill="white"/>
<path d="M137.587 17.3558C137.587 17.1071 137.672 16.8991 137.843 16.732C138.018 16.5649 138.249 16.4813 138.537 16.4813C138.825 16.4813 139.054 16.5649 139.225 16.732C139.4 16.8991 139.487 17.1071 139.487 17.3558C139.487 17.6046 139.4 17.8125 139.225 17.9796C139.054 18.1468 138.825 18.2303 138.537 18.2303C138.249 18.2303 138.018 18.1468 137.843 17.9796C137.672 17.8125 137.587 17.6046 137.587 17.3558Z" fill="white"/>
<path d="M149.5 10.9551L147.169 18.06H145.292L148.476 9.48934H149.671L149.5 10.9551ZM151.437 18.06L149.1 10.9551L148.912 9.48934H150.118L153.321 18.06H151.437ZM151.331 14.8695V16.2528H146.804V14.8695H151.331Z" fill="white"/>
<path d="M158.977 15.2168H160.737C160.702 15.7937 160.543 16.3058 160.261 16.7532C159.982 17.2005 159.592 17.5498 159.089 17.801C158.591 18.0521 157.99 18.1777 157.288 18.1777C156.739 18.1777 156.246 18.0835 155.811 17.8951C155.375 17.7028 155.002 17.4281 154.692 17.071C154.386 16.7139 154.153 16.2823 153.992 15.776C153.831 15.2698 153.75 14.7027 153.75 14.0749V13.4803C153.75 12.8524 153.833 12.2854 153.998 11.7792C154.166 11.269 154.406 10.8354 154.716 10.4783C155.03 10.1211 155.404 9.84645 155.84 9.65416C156.276 9.46187 156.762 9.36572 157.3 9.36572C158.014 9.36572 158.616 9.49522 159.107 9.75423C159.601 10.0132 159.984 10.3703 160.255 10.8256C160.529 11.2808 160.694 11.7988 160.749 12.3796H158.983C158.964 12.0342 158.895 11.7419 158.777 11.5025C158.66 11.2592 158.481 11.0767 158.242 10.9551C158.006 10.8295 157.692 10.7667 157.3 10.7667C157.005 10.7667 156.748 10.8216 156.529 10.9315C156.309 11.0414 156.124 11.2082 155.975 11.4319C155.826 11.6555 155.714 11.9381 155.64 12.2795C155.569 12.617 155.534 13.0133 155.534 13.4686V14.0749C155.534 14.5183 155.567 14.9088 155.634 15.2462C155.701 15.5798 155.803 15.8624 155.94 16.0939C156.081 16.3215 156.262 16.4942 156.482 16.6119C156.705 16.7257 156.974 16.7826 157.288 16.7826C157.657 16.7826 157.961 16.7237 158.2 16.606C158.44 16.4883 158.622 16.3137 158.748 16.0821C158.877 15.8506 158.954 15.5622 158.977 15.2168Z" fill="white"/>
<path d="M167.613 12.98V14.3574H163.139V12.98H167.613ZM163.663 9.48934V18.06H161.897V9.48934H163.663ZM168.873 9.48934V18.06H167.112V9.48934H168.873Z" fill="white"/>
<path d="M172.287 9.48934V18.06H170.527V9.48934H172.287Z" fill="white"/>
<path d="M179.692 16.6825V18.06H175.13V16.6825H179.692ZM175.707 9.48934V18.06H173.941V9.48934H175.707ZM179.097 12.98V14.3221H175.13V12.98H179.097ZM179.686 9.48934V10.8726H175.13V9.48934H179.686Z" fill="white"/>
<path d="M183.812 16.2705L185.831 9.48934H187.797L184.813 18.06H183.518L183.812 16.2705ZM181.952 9.48934L183.965 16.2705L184.271 18.06H182.965L179.998 9.48934H181.952Z" fill="white"/>
<path d="M194.349 16.6825V18.06H189.787V16.6825H194.349ZM190.364 9.48934V18.06H188.598V9.48934H190.364ZM193.754 12.98V14.3221H189.787V12.98H193.754ZM194.343 9.48934V10.8726H189.787V9.48934H194.343Z" fill="white"/>
<path d="M195.355 17.2417C195.355 16.9906 195.442 16.7806 195.614 16.6119C195.791 16.4432 196.025 16.3588 196.315 16.3588C196.605 16.3588 196.837 16.4432 197.01 16.6119C197.186 16.7806 197.274 16.9906 197.274 17.2417C197.274 17.4929 197.186 17.7028 197.01 17.8716C196.837 18.0403 196.605 18.1247 196.315 18.1247C196.025 18.1247 195.791 18.0403 195.614 17.8716C195.442 17.7028 195.355 17.4929 195.355 17.2417Z" fill="white"/>
<path fill-rule="evenodd" clip-rule="evenodd" d="M100.531 24.5981C108.777 24.5981 115.461 31.2585 115.461 39.4743C115.461 47.6901 108.777 54.3504 100.531 54.3504C92.2858 54.3504 85.6015 47.6901 85.6015 39.4743C85.6015 31.2585 92.2858 24.5981 100.531 24.5981ZM100.646 32.0898C103.938 32.0898 106.607 35.3809 106.607 39.4409C106.607 43.5009 103.938 46.792 100.646 46.792C97.3548 46.792 94.6863 43.5009 94.6863 39.4409C94.6863 35.3809 97.3548 32.0898 100.646 32.0898Z" fill="white"/>
<path fill-rule="evenodd" clip-rule="evenodd" d="M138.795 54.4038L131.41 54.3503L131.436 24.5444H138.74L138.795 54.4038Z" fill="white"/>
<path fill-rule="evenodd" clip-rule="evenodd" d="M126.22 54.4038L118.835 54.3503L118.861 24.5444H126.166L126.22 54.4038Z" fill="white"/>
<path fill-rule="evenodd" clip-rule="evenodd" d="M165.417 29.0668C165.417 29.0668 160.762 21.6823 150.915 25.7492C150.915 25.7492 141.631 30.9667 144.093 43.4348C144.093 43.4348 144.734 50.0166 151.583 53.4948C151.583 53.4948 159.797 57.1339 165.416 49.99L165.416 54.0032H174.245L174.272 24.9999L165.416 25.0268L165.417 29.0668ZM158.97 32.2371C162.561 32.2371 165.471 35.4774 165.471 39.4744C165.471 43.4714 162.561 46.7117 158.97 46.7117C155.379 46.7117 152.468 43.4714 152.468 39.4744C152.468 35.4774 155.379 32.2371 158.97 32.2371Z" fill="white"/>
<path fill-rule="evenodd" clip-rule="evenodd" d="M178.699 24.5459L187.85 24.5594L187.863 30.3252L193.871 30.3388L193.918 38.0177L187.851 38.0414L187.878 44.8513C187.878 44.8513 187.945 46.6171 190.26 46.6573H193.939L193.899 54.3229C193.899 54.3229 187.183 54.7776 183.946 53.5201C183.946 53.5201 178.274 51.5402 178.675 43.6205L178.699 24.5459Z" fill="white"/>
<path fill-rule="evenodd" clip-rule="evenodd" d="M212.576 24.5981C220.821 24.5981 227.505 31.2585 227.505 39.4743C227.505 47.6901 220.821 54.3504 212.576 54.3504C204.33 54.3504 197.646 47.6901 197.646 39.4743C197.646 31.2585 204.33 24.5981 212.576 24.5981ZM212.691 32.0898C215.983 32.0898 218.651 35.3809 218.651 39.4409C218.651 43.5009 215.983 46.792 212.691 46.792C209.399 46.792 206.731 43.5009 206.731 39.4409C206.731 35.3809 209.399 32.0898 212.691 32.0898Z" fill="white"/>
</svg>
