<svg width="24" height="24" viewBox="0 0 24 24" fill="none" xmlns="http://www.w3.org/2000/svg">
<path d="M12.0001 12.547C14.7242 12.547 16.9327 9.96208 16.9327 6.77347C16.9327 2.35175 14.7243 1.00002 12.0001 1.00002C9.27575 1.00002 7.06739 2.35175 7.06739 6.77347C7.06744 9.96208 9.2758 12.547 12.0001 12.547Z" fill="white"/>
<path d="M22.8924 21.0448L20.4038 15.4388C20.29 15.1822 20.09 14.9695 19.8411 14.8399L15.9789 12.8294C15.8938 12.7852 15.7906 12.7938 15.7141 12.8517C14.6217 13.6779 13.3374 14.1146 12 14.1146C10.6624 14.1146 9.37818 13.6779 8.28583 12.8517C8.20905 12.7938 8.10592 12.7852 8.02075 12.8294L4.15887 14.8399C3.90987 14.9695 3.71012 15.1821 3.59618 15.4388L1.10759 21.0448C0.936014 21.4313 0.971178 21.8735 1.20168 22.228C1.43208 22.5824 1.822 22.7939 2.24478 22.7939H21.7551C22.1779 22.7939 22.5679 22.5823 22.7983 22.2279C23.0287 21.8735 23.0639 21.4311 22.8924 21.0448Z" fill="white"/>
</svg>
